<svg width="431" height="85" viewBox="0 0 431 85" fill="none" xmlns="http://www.w3.org/2000/svg">
<g filter="url(#filter0_d_0_37)">
<path d="M84.524 0.131439H5.94983V73.2449H84.524V0.131439Z" fill="#1FB584"/>
<path d="M169.647 0.131477H91.0726V73.2449H169.647V0.131477Z" fill="#1FB584"/>
<path d="M254.766 0.131477H176.191V73.2449H254.766V0.131477Z" fill="#1FB584"/>
<path d="M339.888 0.131477H261.314V73.2449H339.888V0.131477Z" fill="#1FB584"/>
<path d="M425.013 0.131477H346.439V73.2449H425.013V0.131477Z" fill="#1FB584"/>
<path d="M45.2349 49.4062L57.1847 46.5883L62.1775 60.9063L45.2349 49.4062ZM72.7359 30.8994H51.7009L45.2349 12.4687L38.7689 30.8994H17.7339L34.7584 42.3233L28.2924 60.754L45.3168 49.33L55.7933 42.3233L72.7359 30.8994Z" fill="white"/>
<path d="M130.363 49.4062L142.312 46.5883L147.305 60.9063L130.363 49.4062ZM157.864 30.8994H136.829L130.363 12.4687L123.897 30.8994H102.862L119.886 42.3233L113.42 60.754L130.445 49.33L140.921 42.3233L157.864 30.8994Z" fill="white"/>
<path d="M215.482 49.4062L227.432 46.5883L232.425 60.9063L215.482 49.4062ZM242.983 30.8994H221.948L215.482 12.4687L209.016 30.8994H187.981L205.006 42.3233L198.54 60.754L215.564 49.33L226.041 42.3233L242.983 30.8994Z" fill="white"/>
<path d="M300.605 53.0865L312.555 50.0581L317.548 65.4455L300.605 53.0865ZM328.106 33.1974H307.071L300.605 13.3901L294.139 33.1974H273.104L290.128 45.4746L283.662 65.2818L300.687 53.0046L311.163 45.4746L328.106 33.1974Z" fill="white"/>
<path d="M385.727 49.4062L397.677 46.5883L402.669 60.9063L385.727 49.4062ZM413.228 30.8994H392.193L385.727 12.4687L379.261 30.8994H358.226L375.25 42.3233L368.784 60.754L385.809 49.33L396.285 42.3233L413.228 30.8994Z" fill="white"/>
</g>
<defs>
<filter id="filter0_d_0_37" x="0.144293" y="0.131439" width="430.674" height="84.7245" filterUnits="userSpaceOnUse" color-interpolation-filters="sRGB">
<feFlood flood-opacity="0" result="BackgroundImageFix"/>
<feColorMatrix in="SourceAlpha" type="matrix" values="0 0 0 0 0 0 0 0 0 0 0 0 0 0 0 0 0 0 127 0" result="hardAlpha"/>
<feOffset dy="5.80554"/>
<feGaussianBlur stdDeviation="2.90277"/>
<feComposite in2="hardAlpha" operator="out"/>
<feColorMatrix type="matrix" values="0 0 0 0 0 0 0 0 0 0 0 0 0 0 0 0 0 0 0.25 0"/>
<feBlend mode="normal" in2="BackgroundImageFix" result="effect1_dropShadow_0_37"/>
<feBlend mode="normal" in="SourceGraphic" in2="effect1_dropShadow_0_37" result="shape"/>
</filter>
</defs>
</svg>
