<svg width="210" height="82" viewBox="0 0 210 82" fill="none" xmlns="http://www.w3.org/2000/svg">
<path d="M57.6869 71.8585C57.7102 72.121 57.7758 72.3222 57.8837 72.4622C58.082 72.7159 58.4262 72.8428 58.9161 72.8428C59.2077 72.8428 59.4644 72.7801 59.686 72.6547C59.9077 72.5264 60.0185 72.3295 60.0185 72.0641C60.0185 71.8629 59.9295 71.7098 59.7516 71.6048C59.6379 71.5407 59.4133 71.4663 59.078 71.3817L58.4524 71.2242C58.0529 71.1251 57.7583 71.0143 57.5688 70.8918C57.2305 70.6789 57.0613 70.3843 57.0613 70.0081C57.0613 69.5648 57.2203 69.2061 57.5381 68.932C57.8589 68.6578 58.2891 68.5208 58.8286 68.5208C59.5344 68.5208 60.0433 68.7278 60.3553 69.142C60.5507 69.4044 60.6455 69.6873 60.6397 69.9906H59.896C59.8814 69.8127 59.8187 69.6509 59.7079 69.505C59.5271 69.298 59.2136 69.1945 58.7674 69.1945C58.4699 69.1945 58.2439 69.2513 58.0893 69.3651C57.9377 69.4788 57.8618 69.629 57.8618 69.8156C57.8618 70.0198 57.9625 70.1831 58.1637 70.3056C58.2803 70.3785 58.4524 70.4426 58.6799 70.4981L59.2004 70.6249C59.7662 70.762 60.1453 70.8947 60.3378 71.023C60.644 71.2242 60.7971 71.5407 60.7971 71.9723C60.7971 72.3893 60.6382 72.7495 60.3203 73.0528C60.0054 73.3561 59.5242 73.5077 58.8767 73.5077C58.1797 73.5077 57.6854 73.3502 57.3938 73.0353C57.1051 72.7174 56.9505 72.3251 56.9301 71.8585H57.6869ZM62.4857 68.6433V71.7535C62.4857 71.9927 62.5236 72.1881 62.5994 72.3397C62.7394 72.6197 63.0004 72.7597 63.3825 72.7597C63.9308 72.7597 64.304 72.5147 64.5024 72.0248C64.6103 71.7623 64.6642 71.4021 64.6642 70.9443V68.6433H65.4516V73.3284H64.708L64.7167 72.6372C64.6146 72.8151 64.4878 72.9653 64.3361 73.0878C64.0357 73.3327 63.6712 73.4552 63.2425 73.4552C62.5747 73.4552 62.1197 73.2321 61.8777 72.7859C61.7464 72.5468 61.6808 72.2274 61.6808 71.8279V68.6433H62.4857ZM66.7071 66.9022H67.4945V73.3284H66.7071V66.9022ZM68.7019 66.9022H69.4893V73.3284H68.7019V66.9022ZM71.2785 72.0816C71.2785 72.3091 71.3616 72.4885 71.5278 72.6197C71.6941 72.7509 71.8909 72.8166 72.1184 72.8166C72.3954 72.8166 72.6637 72.7524 72.9233 72.6241C73.3608 72.4112 73.5795 72.0627 73.5795 71.5786V70.9443C73.4832 71.0055 73.3593 71.0565 73.2076 71.0974C73.056 71.1382 72.9073 71.1674 72.7614 71.1849L72.2846 71.2461C71.9988 71.284 71.7845 71.3438 71.6416 71.4255C71.3995 71.5625 71.2785 71.7812 71.2785 72.0816ZM73.1858 70.4893C73.3666 70.466 73.4876 70.3902 73.5489 70.2618C73.5839 70.1918 73.6013 70.0912 73.6013 69.96C73.6013 69.6917 73.5051 69.4978 73.3126 69.3782C73.1231 69.2557 72.8504 69.1945 72.4946 69.1945C72.0834 69.1945 71.7918 69.3053 71.6197 69.5269C71.5235 69.6494 71.4608 69.8317 71.4316 70.0737H70.6967C70.7113 69.4963 70.8979 69.0953 71.2566 68.8707C71.6182 68.6433 72.0367 68.5295 72.5121 68.5295C73.0633 68.5295 73.5109 68.6345 73.8551 68.8445C74.1963 69.0545 74.3669 69.3811 74.3669 69.8244V72.5235C74.3669 72.6051 74.3829 72.6707 74.415 72.7203C74.45 72.7699 74.5215 72.7947 74.6294 72.7947C74.6644 72.7947 74.7037 72.7932 74.7475 72.7903C74.7912 72.7845 74.8379 72.7772 74.8875 72.7684V73.3502C74.765 73.3852 74.6716 73.4071 74.6075 73.4159C74.5433 73.4246 74.4558 73.429 74.345 73.429C74.0738 73.429 73.8769 73.3327 73.7545 73.1403C73.6903 73.0382 73.6451 72.8938 73.6188 72.7072C73.4584 72.9172 73.2281 73.0994 72.9277 73.254C72.6273 73.4086 72.2963 73.4859 71.9347 73.4859C71.5001 73.4859 71.1443 73.3546 70.8673 73.0921C70.5931 72.8268 70.4561 72.4958 70.4561 72.0991C70.4561 71.6646 70.5917 71.3278 70.8629 71.0886C71.1341 70.8495 71.4899 70.7022 71.9303 70.6468L73.1858 70.4893ZM78.094 66.8803H78.8595V69.212C79.0316 68.9874 79.2372 68.8168 79.4763 68.7001C79.7155 68.5806 79.975 68.5208 80.255 68.5208C80.8383 68.5208 81.3107 68.722 81.6723 69.1245C82.0369 69.524 82.2191 70.1146 82.2191 70.8961C82.2191 71.6369 82.0398 72.2522 81.6811 72.7422C81.3224 73.2321 80.8251 73.4771 80.1894 73.4771C79.8336 73.4771 79.5332 73.3911 79.2882 73.219C79.1424 73.1169 78.9864 72.9536 78.8201 72.7291V73.3284H78.094V66.8803ZM80.1412 72.7816C80.567 72.7816 80.8849 72.6124 81.0949 72.2741C81.3078 71.9358 81.4142 71.4896 81.4142 70.9355C81.4142 70.4426 81.3078 70.0344 81.0949 69.7106C80.8849 69.3869 80.5743 69.2251 80.1631 69.2251C79.8044 69.2251 79.4894 69.3578 79.2182 69.6232C78.9499 69.8885 78.8158 70.326 78.8158 70.9355C78.8158 71.3759 78.8712 71.7331 78.982 72.0073C79.1891 72.5235 79.5755 72.7816 80.1412 72.7816ZM83.7458 72.0816C83.7458 72.3091 83.829 72.4885 83.9952 72.6197C84.1614 72.7509 84.3583 72.8166 84.5858 72.8166C84.8628 72.8166 85.1311 72.7524 85.3907 72.6241C85.8281 72.4112 86.0468 72.0627 86.0468 71.5786V70.9443C85.9506 71.0055 85.8267 71.0565 85.675 71.0974C85.5234 71.1382 85.3746 71.1674 85.2288 71.1849L84.752 71.2461C84.4662 71.284 84.2518 71.3438 84.1089 71.4255C83.8669 71.5625 83.7458 71.7812 83.7458 72.0816ZM85.6531 70.4893C85.8339 70.466 85.955 70.3902 86.0162 70.2618C86.0512 70.1918 86.0687 70.0912 86.0687 69.96C86.0687 69.6917 85.9725 69.4978 85.78 69.3782C85.5904 69.2557 85.3178 69.1945 84.962 69.1945C84.5508 69.1945 84.2591 69.3053 84.0871 69.5269C83.9908 69.6494 83.9281 69.8317 83.899 70.0737H83.164C83.1786 69.4963 83.3653 69.0953 83.724 68.8707C84.0856 68.6433 84.5041 68.5295 84.9795 68.5295C85.5306 68.5295 85.9783 68.6345 86.3224 68.8445C86.6636 69.0545 86.8343 69.3811 86.8343 69.8244V72.5235C86.8343 72.6051 86.8503 72.6707 86.8824 72.7203C86.9174 72.7699 86.9888 72.7947 87.0967 72.7947C87.1317 72.7947 87.1711 72.7932 87.2148 72.7903C87.2586 72.7845 87.3052 72.7772 87.3548 72.7684V73.3502C87.2323 73.3852 87.139 73.4071 87.0749 73.4159C87.0107 73.4246 86.9232 73.429 86.8124 73.429C86.5412 73.429 86.3443 73.3327 86.2218 73.1403C86.1577 73.0382 86.1125 72.8938 86.0862 72.7072C85.9258 72.9172 85.6954 73.0994 85.395 73.254C85.0947 73.4086 84.7637 73.4859 84.402 73.4859C83.9675 73.4859 83.6117 73.3546 83.3346 73.0921C83.0605 72.8268 82.9234 72.4958 82.9234 72.0991C82.9234 71.6646 83.059 71.3278 83.3303 71.0886C83.6015 70.8495 83.9573 70.7022 84.3976 70.6468L85.6531 70.4893ZM88.5972 71.8585C88.6205 72.121 88.6861 72.3222 88.794 72.4622C88.9923 72.7159 89.3365 72.8428 89.8264 72.8428C90.1181 72.8428 90.3747 72.7801 90.5963 72.6547C90.818 72.5264 90.9288 72.3295 90.9288 72.0641C90.9288 71.8629 90.8399 71.7098 90.662 71.6048C90.5482 71.5407 90.3237 71.4663 89.9883 71.3817L89.3627 71.2242C88.9632 71.1251 88.6686 71.0143 88.4791 70.8918C88.1408 70.6789 87.9716 70.3843 87.9716 70.0081C87.9716 69.5648 88.1306 69.2061 88.4484 68.932C88.7692 68.6578 89.1994 68.5208 89.7389 68.5208C90.4447 68.5208 90.9536 68.7278 91.2656 69.142C91.461 69.4044 91.5558 69.6873 91.55 69.9906H90.8063C90.7917 69.8127 90.729 69.6509 90.6182 69.505C90.4374 69.298 90.1239 69.1945 89.6777 69.1945C89.3802 69.1945 89.1542 69.2513 88.9996 69.3651C88.848 69.4788 88.7722 69.629 88.7722 69.8156C88.7722 70.0198 88.8728 70.1831 89.074 70.3056C89.1907 70.3785 89.3627 70.4426 89.5902 70.4981L90.1108 70.6249C90.6765 70.762 91.0557 70.8947 91.2481 71.023C91.5544 71.2242 91.7075 71.5407 91.7075 71.9723C91.7075 72.3893 91.5485 72.7495 91.2306 73.0528C90.9157 73.3561 90.4345 73.5077 89.7871 73.5077C89.09 73.5077 88.5957 73.3502 88.3041 73.0353C88.0154 72.7174 87.8608 72.3251 87.8404 71.8585H88.5972ZM94.5596 68.5383C94.8921 68.5383 95.2144 68.617 95.5264 68.7745C95.8385 68.9291 96.0761 69.1303 96.2395 69.3782C96.3969 69.6144 96.5019 69.89 96.5544 70.205C96.6011 70.4208 96.6244 70.7649 96.6244 71.2374H93.1904C93.205 71.7127 93.3173 72.0948 93.5273 72.3835C93.7372 72.6693 94.0624 72.8122 94.5028 72.8122C94.914 72.8122 95.2421 72.6766 95.487 72.4053C95.627 72.2479 95.7262 72.0656 95.7845 71.8585H96.5588C96.5384 72.0306 96.4699 72.2231 96.3532 72.436C96.2395 72.6459 96.1111 72.818 95.9682 72.9522C95.7291 73.1855 95.4331 73.343 95.0802 73.4246C94.8907 73.4713 94.6763 73.4946 94.4372 73.4946C93.8539 73.4946 93.3596 73.2832 92.9542 72.8603C92.5488 72.4345 92.3461 71.8396 92.3461 71.0755C92.3461 70.3231 92.5503 69.7121 92.9586 69.2426C93.3669 68.773 93.9006 68.5383 94.5596 68.5383ZM95.8151 70.6118C95.7831 70.2706 95.7087 69.9979 95.592 69.7938C95.3762 69.4146 95.0161 69.2251 94.5115 69.2251C94.1499 69.2251 93.8466 69.3563 93.6016 69.6188C93.3567 69.8783 93.2269 70.2093 93.2123 70.6118H95.8151ZM100.588 71.0405C100.588 71.5421 100.694 71.9621 100.907 72.3004C101.12 72.6387 101.461 72.8078 101.931 72.8078C102.295 72.8078 102.594 72.6518 102.827 72.3397C103.064 72.0248 103.182 71.5742 103.182 70.988C103.182 70.396 103.061 69.9585 102.819 69.6756C102.577 69.3898 102.278 69.2469 101.922 69.2469C101.525 69.2469 101.203 69.3986 100.955 69.7019C100.71 70.0052 100.588 70.4514 100.588 71.0405ZM101.773 68.5601C102.132 68.5601 102.432 68.636 102.674 68.7876C102.814 68.8751 102.973 69.0282 103.151 69.2469V66.8803H103.908V73.3284H103.199V72.6766C103.016 72.9653 102.798 73.1738 102.548 73.3021C102.297 73.4304 102.009 73.4946 101.686 73.4946C101.164 73.4946 100.712 73.2759 100.33 72.8384C99.9476 72.3981 99.7566 71.8133 99.7566 71.0842C99.7566 70.4018 99.9301 69.8113 100.277 69.3126C100.627 68.811 101.126 68.5601 101.773 68.5601ZM105.076 68.6651H105.877V73.3284H105.076V68.6651ZM105.076 66.9022H105.877V67.7946H105.076V66.9022ZM111.423 72.8209C111.945 72.8209 112.303 72.6241 112.495 72.2304C112.691 71.8337 112.788 71.3934 112.788 70.9093C112.788 70.4718 112.718 70.116 112.578 69.8419C112.357 69.4103 111.975 69.1945 111.432 69.1945C110.951 69.1945 110.601 69.3782 110.382 69.7456C110.164 70.1131 110.054 70.5564 110.054 71.0755C110.054 71.5742 110.164 71.9898 110.382 72.3222C110.601 72.6547 110.948 72.8209 111.423 72.8209ZM111.454 68.5077C112.058 68.5077 112.568 68.7089 112.985 69.1113C113.402 69.5138 113.611 70.1058 113.611 70.8874C113.611 71.6427 113.427 72.2668 113.059 72.7597C112.692 73.2525 112.122 73.499 111.349 73.499C110.705 73.499 110.193 73.2817 109.814 72.8472C109.434 72.4097 109.245 71.8235 109.245 71.0886C109.245 70.3012 109.445 69.6742 109.844 69.2076C110.244 68.741 110.78 68.5077 111.454 68.5077ZM114.573 66.9022H115.36V73.3284H114.573V66.9022ZM116.703 67.3353H117.5V68.6433H118.248V69.2863H117.5V72.3441C117.5 72.5074 117.555 72.6168 117.666 72.6722C117.727 72.7043 117.829 72.7203 117.972 72.7203C118.01 72.7203 118.051 72.7203 118.095 72.7203C118.138 72.7174 118.189 72.713 118.248 72.7072V73.3284C118.157 73.3546 118.062 73.3736 117.963 73.3852C117.867 73.3969 117.762 73.4027 117.648 73.4027C117.281 73.4027 117.032 73.3094 116.9 73.1228C116.769 72.9332 116.703 72.6882 116.703 72.3878V69.2863H116.069V68.6433H116.703V67.3353ZM119.061 68.6433H119.809V69.4525C119.871 69.2951 120.021 69.104 120.26 68.8795C120.499 68.652 120.775 68.5383 121.087 68.5383C121.101 68.5383 121.126 68.5397 121.161 68.5427C121.196 68.5456 121.256 68.5514 121.34 68.5601V69.3913C121.294 69.3826 121.25 69.3767 121.209 69.3738C121.171 69.3709 121.129 69.3694 121.082 69.3694C120.686 69.3694 120.381 69.4978 120.168 69.7544C119.955 70.0081 119.849 70.3012 119.849 70.6337V73.3284H119.061V68.6433ZM123.974 68.5383C124.306 68.5383 124.629 68.617 124.941 68.7745C125.253 68.9291 125.49 69.1303 125.654 69.3782C125.811 69.6144 125.916 69.89 125.969 70.205C126.015 70.4208 126.039 70.7649 126.039 71.2374H122.605C122.619 71.7127 122.732 72.0948 122.941 72.3835C123.151 72.6693 123.477 72.8122 123.917 72.8122C124.328 72.8122 124.656 72.6766 124.901 72.4053C125.041 72.2479 125.14 72.0656 125.199 71.8585H125.973C125.953 72.0306 125.884 72.2231 125.767 72.436C125.654 72.6459 125.525 72.818 125.382 72.9522C125.143 73.1855 124.847 73.343 124.494 73.4246C124.305 73.4713 124.091 73.4946 123.851 73.4946C123.268 73.4946 122.774 73.2832 122.368 72.8603C121.963 72.4345 121.76 71.8396 121.76 71.0755C121.76 70.3231 121.965 69.7121 122.373 69.2426C122.781 68.773 123.315 68.5383 123.974 68.5383ZM125.229 70.6118C125.197 70.2706 125.123 69.9979 125.006 69.7938C124.79 69.4146 124.43 69.2251 123.926 69.2251C123.564 69.2251 123.261 69.3563 123.016 69.6188C122.771 69.8783 122.641 70.2093 122.627 70.6118H125.229ZM129.783 68.8926V68.2889C130.352 68.2335 130.749 68.1417 130.973 68.0133C131.198 67.8821 131.365 67.5744 131.476 67.0903H132.097V73.3284H131.257V68.8926H129.783ZM136.336 67.0641C137.147 67.0641 137.733 67.398 138.095 68.0658C138.375 68.582 138.515 69.2892 138.515 70.1875C138.515 71.039 138.388 71.7433 138.134 72.3004C137.767 73.0994 137.166 73.499 136.332 73.499C135.579 73.499 135.02 73.1723 134.652 72.5191C134.346 71.9737 134.193 71.2417 134.193 70.3231C134.193 69.6115 134.285 69.0005 134.468 68.4902C134.812 67.5394 135.435 67.0641 136.336 67.0641ZM136.328 72.7816C136.736 72.7816 137.061 72.6007 137.303 72.2391C137.545 71.8775 137.666 71.2038 137.666 70.2181C137.666 69.5065 137.579 68.9218 137.404 68.4639C137.229 68.0031 136.889 67.7727 136.384 67.7727C135.921 67.7727 135.581 67.9915 135.365 68.4289C135.152 68.8634 135.046 69.505 135.046 70.3537C135.046 70.9924 135.114 71.5057 135.251 71.8935C135.461 72.4855 135.82 72.7816 136.328 72.7816ZM141.971 68.6433H142.749V69.3082C142.936 69.0778 143.105 68.9101 143.257 68.8051C143.516 68.6272 143.811 68.5383 144.14 68.5383C144.514 68.5383 144.814 68.6301 145.042 68.8139C145.17 68.9189 145.287 69.0734 145.392 69.2776C145.566 69.0268 145.772 68.8416 146.008 68.722C146.245 68.5995 146.51 68.5383 146.804 68.5383C147.434 68.5383 147.863 68.7658 148.091 69.2207C148.213 69.4657 148.274 69.7952 148.274 70.2093V73.3284H147.456V70.0737C147.456 69.7617 147.378 69.5473 147.22 69.4307C147.065 69.314 146.876 69.2557 146.651 69.2557C146.342 69.2557 146.075 69.3592 145.851 69.5663C145.629 69.7733 145.518 70.1189 145.518 70.603V73.3284H144.718V70.2706C144.718 69.9527 144.68 69.7209 144.604 69.575C144.485 69.3563 144.261 69.2469 143.935 69.2469C143.637 69.2469 143.366 69.3621 143.121 69.5925C142.879 69.8229 142.758 70.24 142.758 70.8436V73.3284H141.971V68.6433ZM149.434 68.6651H150.234V73.3284H149.434V68.6651ZM149.434 66.9022H150.234V67.7946H149.434V66.9022ZM151.45 66.9022H152.238V73.3284H151.45V66.9022ZM154.027 72.0816C154.027 72.3091 154.11 72.4885 154.276 72.6197C154.442 72.7509 154.639 72.8166 154.867 72.8166C155.144 72.8166 155.412 72.7524 155.672 72.6241C156.109 72.4112 156.328 72.0627 156.328 71.5786V70.9443C156.232 71.0055 156.108 71.0565 155.956 71.0974C155.804 71.1382 155.656 71.1674 155.51 71.1849L155.033 71.2461C154.747 71.284 154.533 71.3438 154.39 71.4255C154.148 71.5625 154.027 71.7812 154.027 72.0816ZM155.934 70.4893C156.115 70.466 156.236 70.3902 156.297 70.2618C156.332 70.1918 156.35 70.0912 156.35 69.96C156.35 69.6917 156.253 69.4978 156.061 69.3782C155.871 69.2557 155.599 69.1945 155.243 69.1945C154.832 69.1945 154.54 69.3053 154.368 69.5269C154.272 69.6494 154.209 69.8317 154.18 70.0737H153.445C153.46 69.4963 153.646 69.0953 154.005 68.8707C154.367 68.6433 154.785 68.5295 155.26 68.5295C155.812 68.5295 156.259 68.6345 156.603 68.8445C156.945 69.0545 157.115 69.3811 157.115 69.8244V72.5235C157.115 72.6051 157.131 72.6707 157.163 72.7203C157.198 72.7699 157.27 72.7947 157.378 72.7947C157.413 72.7947 157.452 72.7932 157.496 72.7903C157.54 72.7845 157.586 72.7772 157.636 72.7684V73.3502C157.513 73.3852 157.42 73.4071 157.356 73.4159C157.292 73.4246 157.204 73.429 157.093 73.429C156.822 73.429 156.625 73.3327 156.503 73.1403C156.439 73.0382 156.393 72.8938 156.367 72.7072C156.207 72.9172 155.976 73.0994 155.676 73.254C155.376 73.4086 155.045 73.4859 154.683 73.4859C154.248 73.4859 153.893 73.3546 153.616 73.0921C153.341 72.8268 153.204 72.4958 153.204 72.0991C153.204 71.6646 153.34 71.3278 153.611 71.0886C153.882 70.8495 154.238 70.7022 154.679 70.6468L155.934 70.4893ZM160.925 68.6433H161.673V69.4525C161.735 69.2951 161.885 69.104 162.124 68.8795C162.363 68.652 162.639 68.5383 162.951 68.5383C162.965 68.5383 162.99 68.5397 163.025 68.5427C163.06 68.5456 163.12 68.5514 163.205 68.5601V69.3913C163.158 69.3826 163.114 69.3767 163.073 69.3738C163.035 69.3709 162.993 69.3694 162.946 69.3694C162.55 69.3694 162.245 69.4978 162.032 69.7544C161.819 70.0081 161.713 70.3012 161.713 70.6337V73.3284H160.925V68.6433ZM165.838 68.5383C166.17 68.5383 166.493 68.617 166.805 68.7745C167.117 68.9291 167.354 69.1303 167.518 69.3782C167.675 69.6144 167.78 69.89 167.833 70.205C167.879 70.4208 167.903 70.7649 167.903 71.2374H164.469C164.483 71.7127 164.596 72.0948 164.806 72.3835C165.016 72.6693 165.341 72.8122 165.781 72.8122C166.192 72.8122 166.52 72.6766 166.765 72.4053C166.905 72.2479 167.005 72.0656 167.063 71.8585H167.837C167.817 72.0306 167.748 72.2231 167.632 72.436C167.518 72.6459 167.389 72.818 167.247 72.9522C167.007 73.1855 166.711 73.343 166.359 73.4246C166.169 73.4713 165.955 73.4946 165.715 73.4946C165.132 73.4946 164.638 73.2832 164.233 72.8603C163.827 72.4345 163.624 71.8396 163.624 71.0755C163.624 70.3231 163.829 69.7121 164.237 69.2426C164.645 68.773 165.179 68.5383 165.838 68.5383ZM167.093 70.6118C167.061 70.2706 166.987 69.9979 166.87 69.7938C166.655 69.4146 166.294 69.2251 165.79 69.2251C165.428 69.2251 165.125 69.3563 164.88 69.6188C164.635 69.8783 164.505 70.2093 164.491 70.6118H167.093ZM170.681 68.5077C171.208 68.5077 171.637 68.636 171.967 68.8926C172.299 69.1492 172.499 69.5911 172.566 70.2181H171.8C171.754 69.9294 171.647 69.6902 171.481 69.5007C171.315 69.3082 171.048 69.212 170.681 69.212C170.179 69.212 169.82 69.4569 169.604 69.9469C169.464 70.2648 169.394 70.657 169.394 71.1236C169.394 71.5931 169.494 71.9883 169.692 72.3091C169.89 72.6299 170.202 72.7903 170.628 72.7903C170.955 72.7903 171.213 72.6911 171.402 72.4928C171.595 72.2916 171.728 72.0175 171.8 71.6704H172.566C172.478 72.2916 172.26 72.7466 171.91 73.0353C171.56 73.3211 171.112 73.464 170.567 73.464C169.954 73.464 169.466 73.2409 169.101 72.7947C168.737 72.3456 168.555 71.7856 168.555 71.1149C168.555 70.2925 168.754 69.6523 169.154 69.1945C169.553 68.7366 170.062 68.5077 170.681 68.5077ZM175.304 68.5383C175.637 68.5383 175.959 68.617 176.271 68.7745C176.583 68.9291 176.821 69.1303 176.984 69.3782C177.142 69.6144 177.247 69.89 177.299 70.205C177.346 70.4208 177.369 70.7649 177.369 71.2374H173.935C173.95 71.7127 174.062 72.0948 174.272 72.3835C174.482 72.6693 174.807 72.8122 175.248 72.8122C175.659 72.8122 175.987 72.6766 176.232 72.4053C176.372 72.2479 176.471 72.0656 176.529 71.8585H177.304C177.283 72.0306 177.215 72.2231 177.098 72.436C176.984 72.6459 176.856 72.818 176.713 72.9522C176.474 73.1855 176.178 73.343 175.825 73.4246C175.635 73.4713 175.421 73.4946 175.182 73.4946C174.599 73.4946 174.104 73.2832 173.699 72.8603C173.294 72.4345 173.091 71.8396 173.091 71.0755C173.091 70.3231 173.295 69.7121 173.703 69.2426C174.112 68.773 174.645 68.5383 175.304 68.5383ZM176.56 70.6118C176.528 70.2706 176.453 69.9979 176.337 69.7938C176.121 69.4146 175.761 69.2251 175.256 69.2251C174.895 69.2251 174.591 69.3563 174.346 69.6188C174.101 69.8783 173.972 70.2093 173.957 70.6118H176.56ZM178.34 68.6433H179.088V69.3082C179.31 69.0341 179.545 68.8372 179.793 68.7176C180.041 68.5981 180.316 68.5383 180.619 68.5383C181.284 68.5383 181.734 68.7701 181.967 69.2338C182.095 69.4875 182.159 69.8506 182.159 70.3231V73.3284H181.359V70.3756C181.359 70.0898 181.316 69.8594 181.232 69.6844C181.092 69.3928 180.838 69.2469 180.471 69.2469C180.284 69.2469 180.131 69.2659 180.011 69.3038C179.796 69.368 179.606 69.4963 179.443 69.6888C179.311 69.8433 179.225 70.0037 179.185 70.17C179.147 70.3333 179.128 70.5681 179.128 70.8743V73.3284H178.34V68.6433ZM183.795 71.8585C183.819 72.121 183.884 72.3222 183.992 72.4622C184.191 72.7159 184.535 72.8428 185.025 72.8428C185.316 72.8428 185.573 72.7801 185.795 72.6547C186.016 72.5264 186.127 72.3295 186.127 72.0641C186.127 71.8629 186.038 71.7098 185.86 71.6048C185.746 71.5407 185.522 71.4663 185.186 71.3817L184.561 71.2242C184.161 71.1251 183.867 71.0143 183.677 70.8918C183.339 70.6789 183.17 70.3843 183.17 70.0081C183.17 69.5648 183.329 69.2061 183.647 68.932C183.967 68.6578 184.398 68.5208 184.937 68.5208C185.643 68.5208 186.152 68.7278 186.464 69.142C186.659 69.4044 186.754 69.6873 186.748 69.9906H186.004C185.99 69.8127 185.927 69.6509 185.816 69.505C185.636 69.298 185.322 69.1945 184.876 69.1945C184.578 69.1945 184.352 69.2513 184.198 69.3651C184.046 69.4788 183.97 69.629 183.97 69.8156C183.97 70.0198 184.071 70.1831 184.272 70.3056C184.389 70.3785 184.561 70.4426 184.788 70.4981L185.309 70.6249C185.875 70.762 186.254 70.8947 186.446 71.023C186.753 71.2242 186.906 71.5407 186.906 71.9723C186.906 72.3893 186.747 72.7495 186.429 73.0528C186.114 73.3561 185.633 73.5077 184.985 73.5077C184.288 73.5077 183.794 73.3502 183.502 73.0353C183.214 72.7174 183.059 72.3251 183.039 71.8585H183.795ZM187.807 68.6651H188.607V73.3284H187.807V68.6651ZM187.807 66.9022H188.607V67.7946H187.807V66.9022ZM191.661 72.8209C192.183 72.8209 192.54 72.6241 192.732 72.2304C192.928 71.8337 193.026 71.3934 193.026 70.9093C193.026 70.4718 192.956 70.116 192.816 69.8419C192.594 69.4103 192.212 69.1945 191.669 69.1945C191.188 69.1945 190.838 69.3782 190.62 69.7456C190.401 70.1131 190.292 70.5564 190.292 71.0755C190.292 71.5742 190.401 71.9898 190.62 72.3222C190.838 72.6547 191.185 72.8209 191.661 72.8209ZM191.691 68.5077C192.295 68.5077 192.805 68.7089 193.222 69.1113C193.639 69.5138 193.848 70.1058 193.848 70.8874C193.848 71.6427 193.664 72.2668 193.297 72.7597C192.929 73.2525 192.359 73.499 191.586 73.499C190.942 73.499 190.43 73.2817 190.051 72.8472C189.672 72.4097 189.482 71.8235 189.482 71.0886C189.482 70.3012 189.682 69.6742 190.082 69.2076C190.481 68.741 191.018 68.5077 191.691 68.5077ZM194.789 68.6433H195.537V69.3082C195.758 69.0341 195.993 68.8372 196.241 68.7176C196.489 68.5981 196.764 68.5383 197.068 68.5383C197.733 68.5383 198.182 68.7701 198.415 69.2338C198.543 69.4875 198.607 69.8506 198.607 70.3231V73.3284H197.807V70.3756C197.807 70.0898 197.765 69.8594 197.68 69.6844C197.54 69.3928 197.286 69.2469 196.919 69.2469C196.732 69.2469 196.579 69.2659 196.46 69.3038C196.244 69.368 196.054 69.4963 195.891 69.6888C195.76 69.8433 195.674 70.0037 195.633 70.17C195.595 70.3333 195.576 70.5681 195.576 70.8743V73.3284H194.789V68.6433ZM199.775 68.6651H200.576V73.3284H199.775V68.6651ZM199.775 66.9022H200.576V67.7946H199.775V66.9022Z" fill="black"/>
<g filter="url(#filter0_d_340_18)">
<path d="M40.4203 23.9279H3V61.3482H40.4203V23.9279Z" fill="#1FB584"/>
<path d="M80.9596 23.9279H43.5393V61.3482H80.9596V23.9279Z" fill="#1FB584"/>
<path d="M121.496 23.9279H84.076V61.3482H121.496V23.9279Z" fill="#1FB584"/>
<path d="M162.035 23.9279H124.615V61.3482H162.035V23.9279Z" fill="#1FB584"/>
<path d="M202.575 23.9279H165.155V61.3482H202.575V23.9279Z" fill="#1FB584"/>
<path d="M21.7093 49.1473L27.4003 47.7051L29.778 55.0332L21.7093 49.1473ZM34.8064 39.6753H24.7887L21.7093 30.2423L18.6299 39.6753H8.61218L16.7199 45.5222L13.6405 54.9553L21.7483 49.1083L26.7376 45.5222L34.8064 39.6753Z" fill="white"/>
<path d="M62.2504 49.1473L67.9414 47.7051L70.3191 55.0332L62.2504 49.1473ZM75.3475 39.6753H65.3297L62.2504 30.2423L59.171 39.6753H49.1533L57.261 45.5222L54.1816 54.9553L62.2893 49.1083L67.2787 45.5222L75.3475 39.6753Z" fill="white"/>
<path d="M102.788 49.1473L108.479 47.7051L110.857 55.0332L102.788 49.1473ZM115.885 39.6753H105.868L102.788 30.2423L99.7089 39.6753H89.6912L97.7989 45.5222L94.7195 54.9553L102.827 49.1083L107.817 45.5222L115.885 39.6753Z" fill="white"/>
<path d="M143.327 49.1473L149.018 47.7051L151.396 55.0332L143.327 49.1473ZM156.424 39.6753H146.407L143.327 30.2423L140.248 39.6753H130.23L138.338 45.5222L135.259 54.9553L143.366 49.1083L148.356 45.5222L156.424 39.6753Z" fill="white"/>
<path d="M183.866 49.1473L189.557 47.7051L191.934 55.0332L183.866 49.1473ZM196.963 39.6753H186.945L183.866 30.2423L180.786 39.6753H170.769L178.876 45.5222L175.797 54.9553L183.905 49.1083L188.894 45.5222L196.963 39.6753Z" fill="white"/>
</g>
<path d="M31.4669 7.04398H39.6773V8.58259H36.4542V17.1909H34.6768V8.58259H31.4669V7.04398ZM39.3192 9.84267H40.8445V11.2619H40.8711C40.9241 11.0629 41.017 10.864 41.1496 10.6783C41.2822 10.4926 41.4547 10.3202 41.6404 10.161C41.8393 10.0018 42.0515 9.88246 42.2903 9.78961C42.529 9.69676 42.7678 9.64371 43.0198 9.64371C43.2055 9.64371 43.3381 9.64371 43.4045 9.65697C43.4708 9.67024 43.5504 9.67024 43.63 9.6835V11.2486C43.5106 11.2354 43.4045 11.2089 43.2851 11.1956C43.1657 11.1823 43.0463 11.1691 42.9402 11.1691C42.6617 11.1691 42.4097 11.2221 42.1709 11.3282C41.9322 11.4343 41.7199 11.5935 41.5343 11.8057C41.3486 12.018 41.2159 12.2832 41.1098 12.5883C41.0037 12.9066 40.9506 13.2648 40.9506 13.6627V17.1511H39.3324V9.84267H39.3192ZM51.0445 17.1909H49.4528V16.1696H49.4263C49.2273 16.541 48.9355 16.8328 48.5376 17.0582C48.1397 17.2837 47.7418 17.3898 47.3439 17.3898C46.3756 17.3898 45.6859 17.1511 45.2482 16.6736C44.8237 16.1961 44.5982 15.4798 44.5982 14.5116V9.84267H46.2164V14.3391C46.2164 14.9891 46.3358 15.44 46.5878 15.7053C46.8398 15.9706 47.1847 16.1032 47.6224 16.1032C47.9673 16.1032 48.2458 16.0502 48.4713 15.9441C48.6968 15.838 48.8825 15.7053 49.0284 15.5196C49.1743 15.3472 49.2671 15.135 49.3334 14.883C49.3998 14.6309 49.4263 14.3657 49.4263 14.0871V9.84267H51.0445V17.1909ZM53.8034 14.8299C53.8565 15.3074 54.0289 15.639 54.3472 15.8247C54.6656 16.0104 55.0369 16.1032 55.4747 16.1032C55.6206 16.1032 55.793 16.09 55.9919 16.0635C56.1909 16.0369 56.3633 15.9971 56.5358 15.9308C56.7082 15.8645 56.8408 15.7716 56.9602 15.639C57.0663 15.5064 57.1194 15.3472 57.1061 15.135C57.0929 14.9228 57.0265 14.7503 56.8806 14.6177C56.7347 14.485 56.5623 14.3789 56.3368 14.2993C56.1113 14.2198 55.8593 14.1534 55.5808 14.0871C55.3022 14.0341 55.0104 13.9678 54.7186 13.9014C54.4135 13.8351 54.1217 13.7555 53.8432 13.6627C53.5646 13.5698 53.3126 13.4372 53.0871 13.278C52.8617 13.1189 52.6892 12.9066 52.5566 12.6546C52.4239 12.4026 52.3576 12.0975 52.3576 11.7261C52.3576 11.3282 52.4505 10.9966 52.6494 10.7314C52.8484 10.4661 53.0871 10.2406 53.3922 10.0814C53.684 9.92225 54.0156 9.80287 54.387 9.73656C54.7451 9.67024 55.1033 9.64371 55.4349 9.64371C55.8195 9.64371 56.1776 9.6835 56.5225 9.76308C56.8674 9.84267 57.1857 9.97531 57.4642 10.1477C57.7428 10.3334 57.9815 10.5589 58.154 10.8507C58.3397 11.1425 58.459 11.4874 58.4988 11.8986H56.8143C56.7347 11.5139 56.5623 11.2486 56.2838 11.116C56.0052 10.9834 55.6869 10.917 55.3288 10.917C55.2094 10.917 55.0767 10.9303 54.9176 10.9436C54.7584 10.9568 54.6125 10.9966 54.4799 11.0497C54.3472 11.1027 54.2278 11.1823 54.135 11.2752C54.0421 11.368 53.9891 11.5007 53.9891 11.6598C53.9891 11.8588 54.0554 12.018 54.2013 12.1373C54.334 12.2567 54.5197 12.3628 54.7451 12.4424C54.9706 12.522 55.2226 12.5883 55.5012 12.6546C55.7797 12.7077 56.0848 12.774 56.3766 12.8403C56.6684 12.9066 56.9602 12.9862 57.2388 13.0791C57.5173 13.1719 57.7693 13.3046 57.9948 13.4637C58.2203 13.6229 58.3927 13.8218 58.5386 14.0739C58.6713 14.3259 58.7508 14.6177 58.7508 14.9758C58.7508 15.4135 58.658 15.7849 58.459 16.0767C58.2601 16.3818 58.0081 16.6205 57.6897 16.8195C57.3714 17.0052 57.0265 17.1511 56.6286 17.2307C56.244 17.3103 55.8593 17.3633 55.4747 17.3633C55.0104 17.3633 54.586 17.3103 54.1881 17.2041C53.7901 17.098 53.4585 16.9389 53.1667 16.7266C52.8749 16.5144 52.6494 16.2491 52.4903 15.9308C52.3311 15.6125 52.2383 15.2411 52.225 14.8034H53.8034V14.8299ZM59.1355 9.84267H60.3558V7.64085H61.974V9.84267H63.433V11.0497H61.974V14.9625C61.974 15.135 61.9872 15.2809 62.0005 15.4003C62.0138 15.5196 62.0536 15.6257 62.0934 15.7186C62.1464 15.7982 62.226 15.8645 62.3321 15.9043C62.4382 15.9441 62.5841 15.9706 62.7566 15.9706C62.8759 15.9706 62.982 15.9706 63.1014 15.9573C63.2208 15.9573 63.3269 15.9308 63.4463 15.9043V17.1511C63.2606 17.1644 63.0882 17.1909 62.9157 17.2041C62.7433 17.2174 62.5709 17.2307 62.3852 17.2307C61.9607 17.2307 61.6159 17.1909 61.3506 17.1113C61.0853 17.0317 60.8863 16.9123 60.7404 16.7532C60.5945 16.594 60.4884 16.3951 60.4486 16.1696C60.3956 15.9308 60.369 15.6655 60.3558 15.3605V11.0497H59.1355V9.84267ZM64.5737 9.84267H66.1123V10.8375H66.1389C66.3644 10.413 66.6827 10.1079 67.0939 9.92225C67.505 9.73656 67.9428 9.64371 68.4203 9.64371C69.0039 9.64371 69.5079 9.74982 69.9324 9.94878C70.3568 10.1477 70.7149 10.4263 71.0067 10.7844C71.2853 11.1425 71.4975 11.5537 71.6434 12.0312C71.7893 12.5087 71.8556 13.0127 71.8556 13.5566C71.8556 14.0473 71.7893 14.5248 71.6699 14.9891C71.5373 15.4533 71.3516 15.8645 71.0863 16.2226C70.821 16.5807 70.5027 16.8593 70.1048 17.0715C69.7069 17.2837 69.2426 17.3898 68.6988 17.3898C68.4601 17.3898 68.2213 17.3633 67.9826 17.3235C67.7438 17.2837 67.5183 17.2174 67.3061 17.1113C67.0939 17.0185 66.8816 16.8991 66.7092 16.7532C66.5235 16.6073 66.3644 16.4348 66.245 16.2359H66.1919V19.8967H64.5737V9.84267ZM70.2242 13.5168C70.2242 13.1852 70.1844 12.8668 70.0915 12.5485C70.0119 12.2302 69.8793 11.9649 69.7069 11.7129C69.5344 11.4741 69.3222 11.2752 69.0702 11.1293C68.8182 10.9834 68.5264 10.9038 68.1948 10.9038C67.5183 10.9038 67.001 11.1425 66.6562 11.62C66.3113 12.0975 66.1389 12.7209 66.1389 13.5035C66.1389 13.8749 66.1787 14.2198 66.2715 14.5381C66.3644 14.8564 66.497 15.1217 66.6827 15.3605C66.8684 15.586 67.0806 15.7716 67.3326 15.9043C67.5846 16.0369 67.8764 16.1032 68.208 16.1032C68.5794 16.1032 68.8845 16.0237 69.1498 15.8778C69.4018 15.7319 69.614 15.5329 69.7865 15.2941C69.9456 15.0554 70.065 14.7768 70.1446 14.4718C70.1844 14.1534 70.2242 13.8484 70.2242 13.5168ZM73.0759 7.04398H74.6941V8.58259H73.0759V7.04398ZM73.0759 9.84267H74.6941V17.1776H73.0759V9.84267ZM76.1399 7.04398H77.7581V17.1776H76.1399V7.04398ZM82.7188 17.3898C82.1352 17.3898 81.6046 17.297 81.1536 17.098C80.6894 16.8991 80.3048 16.6338 79.9864 16.3022C79.6681 15.9573 79.4293 15.5594 79.2569 15.0819C79.0977 14.6044 79.0049 14.0871 79.0049 13.5168C79.0049 12.9597 79.0845 12.4424 79.2569 11.9649C79.4161 11.4874 79.6681 11.0895 79.9864 10.7446C80.3048 10.3998 80.6894 10.1345 81.1536 9.94878C81.6179 9.74982 82.1352 9.65697 82.7188 9.65697C83.3024 9.65697 83.833 9.74982 84.2839 9.94878C84.7482 10.1477 85.1328 10.413 85.4512 10.7446C85.7695 11.0895 86.0082 11.4874 86.1807 11.9649C86.3398 12.4424 86.4327 12.9597 86.4327 13.5168C86.4327 14.0871 86.3531 14.6044 86.1807 15.0819C86.0215 15.5594 85.7695 15.9573 85.4512 16.3022C85.1328 16.6471 84.7482 16.9123 84.2839 17.098C83.8197 17.2837 83.3024 17.3898 82.7188 17.3898ZM82.7188 16.1032C83.0769 16.1032 83.3953 16.0237 83.6605 15.8778C83.9258 15.7319 84.138 15.5329 84.3105 15.2809C84.4829 15.0289 84.6023 14.7636 84.6819 14.4453C84.7614 14.1402 84.8012 13.8218 84.8012 13.5035C84.8012 13.1852 84.7614 12.8801 84.6819 12.5618C84.6023 12.2434 84.4696 11.9782 84.3105 11.7261C84.138 11.4874 83.9258 11.2884 83.6605 11.1425C83.3953 10.9966 83.0769 10.917 82.7188 10.917C82.3607 10.917 82.0423 10.9966 81.7771 11.1425C81.5118 11.2884 81.2995 11.4874 81.1271 11.7261C80.9547 11.9649 80.8353 12.2434 80.7557 12.5618C80.6761 12.8801 80.6364 13.1852 80.6364 13.5035C80.6364 13.8218 80.6761 14.1402 80.7557 14.4453C80.8353 14.7503 80.9679 15.0289 81.1271 15.2809C81.2995 15.5329 81.5118 15.7319 81.7771 15.8778C82.0423 16.0369 82.3607 16.1032 82.7188 16.1032ZM86.8837 9.84267H88.104V7.64085H89.7222V9.84267H91.1812V11.0497H89.7222V14.9625C89.7222 15.135 89.7354 15.2809 89.7487 15.4003C89.7619 15.5196 89.8017 15.6257 89.8415 15.7186C89.8946 15.7982 89.9742 15.8645 90.0803 15.9043C90.1864 15.9441 90.3323 15.9706 90.5047 15.9706C90.6241 15.9706 90.7302 15.9706 90.8496 15.9573C90.969 15.9573 91.0751 15.9308 91.1944 15.9043V17.1511C91.0088 17.1644 90.8363 17.1909 90.6639 17.2041C90.4915 17.2174 90.319 17.2307 90.1333 17.2307C89.7089 17.2307 89.364 17.1909 89.0987 17.1113C88.8335 17.0317 88.6345 16.9123 88.4886 16.7532C88.3427 16.594 88.2366 16.3951 88.1968 16.1696C88.1437 15.9308 88.1172 15.6655 88.104 15.3605V11.0497H86.8837V9.84267Z" fill="#1A1A18"/>
<path d="M29.5835 7.04321H22.169L19.8876 6.10352e-05L17.5929 7.04321H10.1784L16.1737 11.407L13.8923 18.4502L19.8876 14.0996L25.8829 18.4502L23.5882 11.407L29.5835 7.04321Z" fill="#20AC79"/>
<path d="M24.1053 12.9978L23.588 11.4061L19.8873 14.0987L24.1053 12.9978Z" fill="#00532C"/>
<path d="M11.6371 76.3218V70.3357L7.40355 76.3218H11.6371ZM11.6648 80.9981V77.7699H5.87244V76.1465L11.9231 67.7531H13.325V76.3218H15.2712V77.7699H13.325V80.9981H11.6648ZM17.5217 78.9874H19.4495V80.9981H17.5217V78.9874ZM23.6738 77.8068C23.723 78.723 24.0766 79.3563 24.7345 79.7068C25.0727 79.8913 25.454 79.9835 25.8782 79.9835C26.6715 79.9835 27.3478 79.6546 27.9074 78.9966C28.467 78.3325 28.8636 76.989 29.0972 74.9659C28.7283 75.5501 28.2702 75.9621 27.7229 76.2019C27.1818 76.4355 26.5977 76.5524 25.9705 76.5524C24.6976 76.5524 23.6892 76.1558 22.9452 75.3625C22.2073 74.5693 21.8383 73.5486 21.8383 72.3003C21.8383 71.1013 22.2042 70.0467 22.9359 69.1367C23.6677 68.2266 24.7468 67.7716 26.1734 67.7716C28.098 67.7716 29.4262 68.6386 30.1579 70.3726C30.5638 71.3257 30.7667 72.5186 30.7667 73.9513C30.7667 75.5685 30.5238 77.0013 30.038 78.2495C29.2325 80.3279 27.8674 81.367 25.9428 81.367C24.6515 81.367 23.6707 81.0289 23.0005 80.3525C22.3303 79.6761 21.9951 78.8275 21.9951 77.8068H23.6738ZM26.1918 75.0951C26.8498 75.0951 27.4493 74.8798 27.9904 74.4494C28.5377 74.0128 28.8113 73.2534 28.8113 72.1712C28.8113 71.1997 28.5654 70.4772 28.0734 70.0037C27.5877 69.5241 26.9666 69.2843 26.2103 69.2843C25.3986 69.2843 24.753 69.5579 24.2733 70.1051C23.7999 70.6463 23.5631 71.3718 23.5631 72.2819C23.5631 73.1428 23.7722 73.8284 24.1903 74.3387C24.6085 74.843 25.2756 75.0951 26.1918 75.0951ZM35.978 67.4488H37.38L33.0818 80.9981H31.6798L35.978 67.4488ZM38.8073 77.5413C38.9332 78.448 39.2921 79.128 39.884 79.5814C40.4885 80.0221 41.2252 80.2425 42.0941 80.2425C42.5853 80.2425 43.026 80.1544 43.4164 79.9781C43.8194 79.8018 44.1594 79.5625 44.4365 79.2603C44.7135 78.9454 44.9213 78.5865 45.0598 78.1835C45.2109 77.768 45.2865 77.3209 45.2865 76.8424C45.2865 76.3512 45.2046 75.8979 45.0409 75.4823C44.8898 75.0667 44.6694 74.7078 44.3798 74.4056C44.1027 74.1033 43.7564 73.8704 43.3409 73.7067C42.9379 73.543 42.4845 73.4611 41.9808 73.4611C41.3763 73.4611 40.8348 73.5744 40.3563 73.8011C39.8777 74.0152 39.4559 74.3615 39.0907 74.8401L38.0895 74.7078L39.1662 67.8131H45.7776V68.8331H40.1863L39.3551 73.31C39.6196 73.1463 39.8588 73.0077 40.0729 72.8944C40.2996 72.7811 40.5263 72.6929 40.753 72.6299C40.9796 72.5544 41.2126 72.504 41.4519 72.4788C41.7037 72.4536 41.9808 72.4411 42.283 72.4411C42.8875 72.4411 43.4479 72.5418 43.9642 72.7433C44.4805 72.9448 44.9276 73.2344 45.3054 73.6122C45.6832 73.99 45.9728 74.456 46.1743 75.0101C46.3884 75.5516 46.4954 76.1623 46.4954 76.8424C46.4954 77.5476 46.3758 78.1772 46.1365 78.7313C45.9099 79.2728 45.6013 79.7325 45.2109 80.1103C44.8205 80.4881 44.3672 80.7777 43.8509 80.9792C43.3471 81.1681 42.8245 81.2626 42.283 81.2626C41.6534 81.2626 41.0615 81.1996 40.5074 81.0737C39.9659 80.9477 39.4873 80.7399 39.0718 80.4503C38.6562 80.1481 38.3162 79.764 38.0517 79.298C37.7999 78.8195 37.6487 78.2339 37.5984 77.5413H38.8073Z" fill="black"/>
<path d="M108.521 5.93808H117.302V7.41384H110.112V11.0705H116.761V12.4642H110.112V16.5472H117.425V17.9819H108.521V5.93808ZM122.754 8.94699C123.743 8.94699 124.547 9.18749 125.165 9.66848C125.788 10.1495 126.162 10.9775 126.288 12.1527H124.853C124.766 11.6116 124.566 11.1634 124.254 10.8081C123.943 10.4474 123.443 10.267 122.754 10.267C121.814 10.267 121.142 10.7261 120.737 11.6444C120.475 12.2401 120.344 12.9753 120.344 13.8498C120.344 14.7298 120.53 15.4704 120.901 16.0716C121.273 16.6729 121.858 16.9735 122.656 16.9735C123.268 16.9735 123.752 16.7877 124.107 16.416C124.468 16.0388 124.716 15.5251 124.853 14.8746H126.288C126.124 16.0388 125.714 16.8915 125.058 17.4326C124.402 17.9683 123.563 18.2361 122.541 18.2361C121.393 18.2361 120.478 17.818 119.794 16.9817C119.111 16.14 118.77 15.0905 118.77 13.8334C118.77 12.2921 119.144 11.0923 119.893 10.2342C120.642 9.37606 121.595 8.94699 122.754 8.94699ZM131.15 8.94699C132.139 8.94699 132.942 9.18749 133.56 9.66848C134.183 10.1495 134.557 10.9775 134.683 12.1527H133.248C133.161 11.6116 132.961 11.1634 132.65 10.8081C132.338 10.4474 131.838 10.267 131.15 10.267C130.209 10.267 129.537 10.7261 129.133 11.6444C128.87 12.2401 128.739 12.9753 128.739 13.8498C128.739 14.7298 128.925 15.4704 129.297 16.0716C129.668 16.6729 130.253 16.9735 131.051 16.9735C131.663 16.9735 132.147 16.7877 132.502 16.416C132.863 16.0388 133.112 15.5251 133.248 14.8746H134.683C134.519 16.0388 134.109 16.8915 133.453 17.4326C132.797 17.9683 131.958 18.2361 130.936 18.2361C129.789 18.2361 128.873 17.818 128.19 16.9817C127.507 16.14 127.165 15.0905 127.165 13.8334C127.165 12.2921 127.539 11.0923 128.288 10.2342C129.037 9.37606 129.991 8.94699 131.15 8.94699ZM139.816 9.00438C140.439 9.00438 141.043 9.15196 141.627 9.44711C142.212 9.7368 142.658 10.1139 142.964 10.5785C143.259 11.0213 143.456 11.5378 143.554 12.1281C143.642 12.5325 143.685 13.1775 143.685 14.063H137.249C137.277 14.9539 137.487 15.6699 137.881 16.211C138.274 16.7467 138.884 17.0145 139.709 17.0145C140.48 17.0145 141.095 16.7603 141.554 16.252C141.816 15.9569 142.002 15.6152 142.111 15.2272H143.562C143.524 15.5497 143.396 15.9104 143.177 16.3094C142.964 16.7029 142.723 17.0254 142.456 17.2768C142.007 17.7141 141.453 18.0093 140.791 18.1623C140.436 18.2498 140.034 18.2935 139.586 18.2935C138.493 18.2935 137.566 17.8972 136.807 17.1047C136.047 16.3067 135.667 15.1917 135.667 13.7596C135.667 12.3494 136.05 11.2044 136.815 10.3244C137.58 9.44438 138.58 9.00438 139.816 9.00438ZM142.169 12.8906C142.108 12.2511 141.969 11.74 141.75 11.3574C141.346 10.6469 140.671 10.2916 139.725 10.2916C139.048 10.2916 138.479 10.5375 138.02 11.0295C137.561 11.5159 137.318 12.1363 137.29 12.8906H142.169ZM144.85 16.8177L150.056 10.5211H145.235V9.20115H152.04V10.4064L146.866 16.6619H152.196V17.9819H144.85V16.8177ZM153.901 9.24215H155.401V17.9819H153.901V9.24215ZM153.901 5.93808H155.401V7.61061H153.901V5.93808ZM161.124 17.0309C162.102 17.0309 162.772 16.6619 163.133 15.9241C163.499 15.1807 163.682 14.3554 163.682 13.4481C163.682 12.6282 163.551 11.9614 163.288 11.4476C162.873 10.6387 162.157 10.2342 161.14 10.2342C160.238 10.2342 159.583 10.5785 159.173 11.2672C158.763 11.9559 158.558 12.7867 158.558 13.7596C158.558 14.6943 158.763 15.4731 159.173 16.0962C159.583 16.7193 160.233 17.0309 161.124 17.0309ZM161.181 8.94699C162.313 8.94699 163.269 9.32413 164.051 10.0784C164.832 10.8327 165.223 11.9422 165.223 13.4071C165.223 14.8227 164.879 15.9924 164.19 16.9161C163.502 17.8398 162.433 18.3017 160.985 18.3017C159.777 18.3017 158.817 17.8945 158.107 17.0801C157.396 16.2602 157.041 15.1616 157.041 13.7842C157.041 12.3085 157.415 11.1333 158.164 10.2588C158.913 9.38426 159.919 8.94699 161.181 8.94699ZM166.986 9.20115H168.388V10.4474C168.803 9.93357 169.243 9.56463 169.708 9.34053C170.172 9.11643 170.689 9.00438 171.257 9.00438C172.504 9.00438 173.345 9.43891 173.783 10.308C174.023 10.7835 174.143 11.464 174.143 12.3494V17.9819H172.643V12.4478C172.643 11.9122 172.564 11.4804 172.405 11.1524C172.143 10.6059 171.667 10.3326 170.979 10.3326C170.629 10.3326 170.342 10.3681 170.118 10.4392C169.713 10.5594 169.358 10.7999 169.052 11.1606C168.806 11.4503 168.645 11.7509 168.568 12.0625C168.497 12.3686 168.462 12.8086 168.462 13.3825V17.9819H166.986V9.20115ZM177.464 15.6453C177.464 16.0716 177.62 16.4078 177.931 16.6537C178.243 16.8997 178.612 17.0227 179.038 17.0227C179.557 17.0227 180.06 16.9024 180.547 16.6619C181.366 16.2629 181.776 15.6098 181.776 14.7025V13.5137C181.596 13.6284 181.364 13.7241 181.079 13.8006C180.795 13.8771 180.516 13.9318 180.243 13.9646L179.35 14.0794C178.814 14.1504 178.412 14.2625 178.144 14.4155C177.691 14.6724 177.464 15.0823 177.464 15.6453ZM181.038 12.661C181.377 12.6173 181.604 12.4752 181.719 12.2347C181.785 12.1035 181.817 11.9149 181.817 11.669C181.817 11.1661 181.637 10.8026 181.276 10.5785C180.921 10.349 180.41 10.2342 179.743 10.2342C178.972 10.2342 178.426 10.4419 178.103 10.8573C177.923 11.0868 177.805 11.4285 177.751 11.8821H176.373C176.401 10.7999 176.751 10.0483 177.423 9.62748C178.101 9.20115 178.885 8.98799 179.776 8.98799C180.809 8.98799 181.648 9.18476 182.293 9.57829C182.932 9.97183 183.252 10.584 183.252 11.4148V16.4734C183.252 16.6264 183.282 16.7494 183.342 16.8423C183.408 16.9352 183.542 16.9817 183.744 16.9817C183.81 16.9817 183.883 16.979 183.965 16.9735C184.047 16.9626 184.135 16.9489 184.228 16.9325V18.0229C183.998 18.0885 183.823 18.1295 183.703 18.1459C183.583 18.1623 183.419 18.1705 183.211 18.1705C182.703 18.1705 182.334 17.9901 182.104 17.6294C181.984 17.4381 181.899 17.1675 181.85 16.8177C181.55 17.2113 181.118 17.5529 180.555 17.8426C179.992 18.1322 179.371 18.2771 178.694 18.2771C177.879 18.2771 177.212 18.0311 176.693 17.5392C176.179 17.0418 175.922 16.4215 175.922 15.6781C175.922 14.8637 176.177 14.2324 176.685 13.7842C177.193 13.336 177.86 13.06 178.685 12.9561L181.038 12.661ZM185.72 5.93808H187.196V17.9819H185.72V5.93808ZM193.074 9.00438C193.697 9.00438 194.301 9.15196 194.886 9.44711C195.471 9.7368 195.916 10.1139 196.222 10.5785C196.518 11.0213 196.714 11.5378 196.813 12.1281C196.9 12.5325 196.944 13.1775 196.944 14.063H190.508C190.535 14.9539 190.746 15.6699 191.139 16.211C191.533 16.7467 192.142 17.0145 192.968 17.0145C193.738 17.0145 194.353 16.7603 194.812 16.252C195.075 15.9569 195.26 15.6152 195.37 15.2272H196.821C196.783 15.5497 196.654 15.9104 196.436 16.3094C196.222 16.7029 195.982 17.0254 195.714 17.2768C195.266 17.7141 194.711 18.0093 194.05 18.1623C193.694 18.2498 193.293 18.2935 192.845 18.2935C191.751 18.2935 190.825 17.8972 190.065 17.1047C189.305 16.3067 188.926 15.1917 188.926 13.7596C188.926 12.3494 189.308 11.2044 190.073 10.3244C190.839 9.44438 191.839 9.00438 193.074 9.00438ZM195.427 12.8906C195.367 12.2511 195.228 11.74 195.009 11.3574C194.605 10.6469 193.93 10.2916 192.984 10.2916C192.306 10.2916 191.738 10.5375 191.279 11.0295C190.819 11.5159 190.576 12.1363 190.549 12.8906H195.427Z" fill="black"/>
<defs>
<filter id="filter0_d_340_18" x="0.235162" y="23.9279" width="205.105" height="42.95" filterUnits="userSpaceOnUse" color-interpolation-filters="sRGB">
<feFlood flood-opacity="0" result="BackgroundImageFix"/>
<feColorMatrix in="SourceAlpha" type="matrix" values="0 0 0 0 0 0 0 0 0 0 0 0 0 0 0 0 0 0 127 0" result="hardAlpha"/>
<feOffset dy="2.76484"/>
<feGaussianBlur stdDeviation="1.38242"/>
<feComposite in2="hardAlpha" operator="out"/>
<feColorMatrix type="matrix" values="0 0 0 0 0 0 0 0 0 0 0 0 0 0 0 0 0 0 0.25 0"/>
<feBlend mode="normal" in2="BackgroundImageFix" result="effect1_dropShadow_340_18"/>
<feBlend mode="normal" in="SourceGraphic" in2="effect1_dropShadow_340_18" result="shape"/>
</filter>
</defs>
</svg>
