<svg width="171" height="40" viewBox="0 0 171 40" fill="none" xmlns="http://www.w3.org/2000/svg">
<path d="M44.7012 13.894H61.9412V16.9002H55.1733V33.7195H51.4412V16.9002H44.7012V13.894ZM61.1892 19.3622H64.3921V22.1351H64.4478C64.5592 21.7464 64.7542 21.3577 65.0327 20.9949C65.3112 20.632 65.6733 20.2951 66.0632 19.9841C66.4809 19.6732 66.9266 19.4399 67.4279 19.2585C67.9292 19.0771 68.4305 18.9734 68.9597 18.9734C69.3496 18.9734 69.6281 18.9734 69.7674 18.9994C69.9067 19.0253 70.0738 19.0253 70.2409 19.0512V22.1092C69.9902 22.0833 69.7674 22.0315 69.5167 22.0056C69.2661 21.9797 69.0154 21.9537 68.7926 21.9537C68.2077 21.9537 67.6785 22.0574 67.1772 22.2647C66.6759 22.4721 66.2303 22.783 65.8404 23.1977C65.4504 23.6123 65.1719 24.1307 64.9491 24.7267C64.7263 25.3487 64.6149 26.0484 64.6149 26.8259V33.6417H61.217V19.3622H61.1892ZM85.8097 33.7195H82.4676V31.7239H82.4119C81.9941 32.4496 81.3814 33.0197 80.5458 33.4603C79.7103 33.9009 78.8748 34.1082 78.0392 34.1082C76.0061 34.1082 74.5578 33.6417 73.6387 32.7087C72.7475 31.7758 72.274 30.3763 72.274 28.4845V19.3622H75.6719V28.1476C75.6719 29.4175 75.9225 30.2986 76.4517 30.8169C76.9809 31.3352 77.705 31.5944 78.6241 31.5944C79.3482 31.5944 79.9331 31.4907 80.4066 31.2834C80.8801 31.0761 81.27 30.8169 81.5763 30.4541C81.8827 30.1172 82.0777 29.7025 82.2169 29.2101C82.3562 28.7177 82.4119 28.1994 82.4119 27.6552V19.3622H85.8097V33.7195ZM91.6028 29.1065C91.7142 30.0394 92.0763 30.6873 92.7447 31.0501C93.4131 31.413 94.193 31.5944 95.1121 31.5944C95.4184 31.5944 95.7805 31.5685 96.1983 31.5166C96.616 31.4648 96.9781 31.387 97.3402 31.2575C97.7022 31.1279 97.9807 30.9465 98.2314 30.6873C98.4542 30.4282 98.5656 30.1172 98.5378 29.7025C98.5099 29.2879 98.3707 28.951 98.0643 28.6918C97.7579 28.4327 97.3959 28.2253 96.9224 28.0698C96.4489 27.9143 95.9198 27.7848 95.3349 27.6552C94.75 27.5515 94.1373 27.4219 93.5245 27.2924C92.884 27.1628 92.2712 27.0073 91.6864 26.8259C91.1015 26.6445 90.5723 26.3853 90.0988 26.0743C89.6254 25.7633 89.2633 25.3487 88.9848 24.8563C88.7063 24.3639 88.567 23.7678 88.567 23.0422C88.567 22.2647 88.762 21.6168 89.1797 21.0985C89.5975 20.5802 90.0988 20.1396 90.7394 19.8287C91.3521 19.5177 92.0484 19.2844 92.8283 19.1548C93.5802 19.0253 94.3322 18.9734 95.0285 18.9734C95.8362 18.9734 96.5882 19.0512 97.3123 19.2067C98.0364 19.3622 98.7049 19.6213 99.2898 19.9582C99.8746 20.3211 100.376 20.7616 100.738 21.3318C101.128 21.9019 101.379 22.5757 101.462 23.3791H97.925C97.7579 22.6275 97.3959 22.1092 96.811 21.8501C96.2261 21.5909 95.5577 21.4613 94.8057 21.4613C94.555 21.4613 94.2765 21.4873 93.9423 21.5132C93.6081 21.5391 93.3017 21.6168 93.0232 21.7205C92.7447 21.8242 92.494 21.9797 92.2991 22.1611C92.1041 22.3425 91.9927 22.6016 91.9927 22.9126C91.9927 23.3014 92.132 23.6123 92.4383 23.8456C92.7169 24.0788 93.1068 24.2862 93.5802 24.4416C94.0537 24.5971 94.5829 24.7267 95.1678 24.8563C95.7526 24.96 96.3932 25.0895 97.006 25.2191C97.6187 25.3487 98.2314 25.5042 98.8163 25.6856C99.4012 25.867 99.9303 26.1262 100.404 26.4372C100.877 26.7481 101.239 27.1369 101.546 27.6293C101.824 28.1217 101.991 28.6918 101.991 29.3915C101.991 30.2468 101.796 30.9724 101.379 31.5425C100.961 32.1386 100.432 32.6051 99.7632 32.9938C99.0948 33.3566 98.3707 33.6417 97.5351 33.7972C96.7274 33.9527 95.9198 34.0564 95.1121 34.0564C94.1373 34.0564 93.246 33.9527 92.4105 33.7454C91.5749 33.538 90.8787 33.2271 90.2659 32.8124C89.6532 32.3978 89.1797 31.8794 88.8455 31.2575C88.5113 30.6355 88.3164 29.9098 88.2885 29.0546H91.6028V29.1065ZM102.799 19.3622H105.361V15.0602H108.759V19.3622H111.823V21.7205H108.759V29.3656C108.759 29.7025 108.787 29.9876 108.815 30.2208C108.843 30.4541 108.926 30.6614 109.01 30.8428C109.121 30.9983 109.288 31.1279 109.511 31.2056C109.734 31.2834 110.04 31.3352 110.402 31.3352C110.653 31.3352 110.876 31.3352 111.127 31.3093C111.377 31.3093 111.6 31.2575 111.851 31.2056V33.6417C111.461 33.6676 111.099 33.7195 110.737 33.7454C110.375 33.7713 110.012 33.7972 109.623 33.7972C108.731 33.7972 108.007 33.7195 107.45 33.564C106.893 33.4085 106.475 33.1752 106.169 32.8642C105.863 32.5532 105.64 32.1645 105.556 31.7239C105.445 31.2575 105.389 30.7392 105.361 30.1431V21.7205H102.799V19.3622ZM114.218 19.3622H117.449V21.3058H117.505C117.978 20.4765 118.646 19.8805 119.51 19.5177C120.373 19.1548 121.292 18.9734 122.295 18.9734C123.52 18.9734 124.579 19.1808 125.47 19.5695C126.361 19.9582 127.113 20.5025 127.726 21.2022C128.311 21.9019 128.756 22.7053 129.063 23.6383C129.369 24.5712 129.508 25.556 129.508 26.6186C129.508 27.5774 129.369 28.5104 129.118 29.4175C128.84 30.3245 128.45 31.1279 127.893 31.8276C127.336 32.5273 126.668 33.0716 125.832 33.4862C124.996 33.9009 124.022 34.1082 122.88 34.1082C122.378 34.1082 121.877 34.0564 121.376 33.9786C120.874 33.9009 120.401 33.7713 119.955 33.564C119.51 33.3825 119.064 33.1493 118.702 32.8642C118.312 32.5792 117.978 32.2423 117.727 31.8535H117.616V39.0062H114.218V19.3622ZM126.083 26.5408C126.083 25.8929 125.999 25.2709 125.804 24.649C125.637 24.027 125.359 23.5087 124.996 23.0163C124.634 22.5498 124.189 22.1611 123.66 21.876C123.13 21.5909 122.518 21.4354 121.821 21.4354C120.401 21.4354 119.315 21.9019 118.591 22.8349C117.867 23.7678 117.505 24.9859 117.505 26.5149C117.505 27.2405 117.588 27.9143 117.783 28.5363C117.978 29.1583 118.256 29.6766 118.646 30.1431C119.036 30.5837 119.482 30.9465 120.011 31.2056C120.54 31.4648 121.153 31.5944 121.849 31.5944C122.629 31.5944 123.27 31.4389 123.827 31.1538C124.356 30.8687 124.802 30.48 125.164 30.0135C125.498 29.547 125.748 29.0028 125.916 28.4067C125.999 27.7848 126.083 27.1887 126.083 26.5408ZM132.071 13.894H135.469V16.9002H132.071V13.894ZM132.071 19.3622H135.469V33.6935H132.071V19.3622ZM138.504 13.894H141.902V33.6935H138.504V13.894ZM152.319 34.1082C151.093 34.1082 149.979 33.9268 149.032 33.538C148.057 33.1493 147.25 32.631 146.581 31.9831C145.913 31.3093 145.411 30.5318 145.049 29.5989C144.715 28.6659 144.52 27.6552 144.52 26.5408C144.52 25.4524 144.687 24.4416 145.049 23.5087C145.384 22.5757 145.913 21.7982 146.581 21.1244C147.25 20.4506 148.057 19.9323 149.032 19.5695C150.007 19.1808 151.093 18.9994 152.319 18.9994C153.544 18.9994 154.658 19.1808 155.605 19.5695C156.58 19.9582 157.388 20.4765 158.056 21.1244C158.724 21.7982 159.226 22.5757 159.588 23.5087C159.922 24.4416 160.117 25.4524 160.117 26.5408C160.117 27.6552 159.95 28.6659 159.588 29.5989C159.254 30.5318 158.724 31.3093 158.056 31.9831C157.388 32.6569 156.58 33.1752 155.605 33.538C154.63 33.9009 153.544 34.1082 152.319 34.1082ZM152.319 31.5944C153.071 31.5944 153.739 31.4389 154.296 31.1538C154.853 30.8687 155.299 30.48 155.661 29.9876C156.023 29.4952 156.273 28.9769 156.441 28.3549C156.608 27.7588 156.691 27.1369 156.691 26.5149C156.691 25.8929 156.608 25.2969 156.441 24.6749C156.273 24.0529 155.995 23.5346 155.661 23.0422C155.299 22.5757 154.853 22.187 154.296 21.9019C153.739 21.6168 153.071 21.4613 152.319 21.4613C151.567 21.4613 150.898 21.6168 150.341 21.9019C149.784 22.187 149.339 22.5757 148.976 23.0422C148.614 23.5087 148.364 24.0529 148.197 24.6749C148.03 25.2969 147.946 25.8929 147.946 26.5149C147.946 27.1369 148.03 27.7588 148.197 28.3549C148.364 28.951 148.642 29.4952 148.976 29.9876C149.339 30.48 149.784 30.8687 150.341 31.1538C150.898 31.4648 151.567 31.5944 152.319 31.5944ZM161.064 19.3622H163.626V15.0602H167.024V19.3622H170.088V21.7205H167.024V29.3656C167.024 29.7025 167.052 29.9876 167.08 30.2208C167.108 30.4541 167.191 30.6614 167.275 30.8428C167.386 30.9983 167.553 31.1279 167.776 31.2056C167.999 31.2834 168.305 31.3352 168.667 31.3352C168.918 31.3352 169.141 31.3352 169.391 31.3093C169.642 31.3093 169.865 31.2575 170.116 31.2056V33.6417C169.726 33.6676 169.364 33.7195 169.002 33.7454C168.639 33.7713 168.277 33.7972 167.887 33.7972C166.996 33.7972 166.272 33.7195 165.715 33.564C165.158 33.4085 164.74 33.1752 164.434 32.8642C164.128 32.5532 163.905 32.1645 163.821 31.7239C163.71 31.2575 163.654 30.7392 163.626 30.1431V21.7205H161.064V19.3622Z" fill="#1A1A18"/>
<path d="M40.7464 13.8925H25.1776L20.3871 0.131271L15.5689 13.8925H0L12.5888 22.4187L7.79836 36.18L20.3871 27.6796L32.9759 36.18L28.1576 22.4187L40.7464 13.8925Z" fill="#20AC79"/>
<path d="M29.2435 25.5269L28.1573 22.417L20.3868 27.6779L29.2435 25.5269Z" fill="#00532C"/>
</svg>
