<svg width="1096" height="85" viewBox="0 0 1096 85" fill="none" xmlns="http://www.w3.org/2000/svg">
<path d="M654.162 66.2811C654.232 67.0748 654.431 67.6833 654.757 68.1066C655.357 68.8739 656.397 69.2575 657.879 69.2575C658.761 69.2575 659.537 69.0679 660.207 68.6887C660.877 68.3007 661.212 67.7054 661.212 66.9028C661.212 66.2943 660.943 65.8313 660.405 65.5139C660.062 65.3198 659.382 65.095 658.368 64.8392L656.477 64.363C655.268 64.0631 654.378 63.728 653.804 63.3576C652.781 62.7138 652.27 61.8231 652.27 60.6855C652.27 59.345 652.751 58.2602 653.712 57.4313C654.682 56.6023 655.983 56.1878 657.614 56.1878C659.748 56.1878 661.287 56.8139 662.231 58.0662C662.822 58.8599 663.108 59.7154 663.091 60.6326H660.842C660.798 60.0946 660.608 59.6051 660.273 59.1642C659.726 58.538 658.778 58.225 657.429 58.225C656.53 58.225 655.846 58.3969 655.379 58.7409C654.92 59.0848 654.691 59.539 654.691 60.1034C654.691 60.7207 654.995 61.2146 655.604 61.585C655.956 61.8055 656.477 61.9995 657.164 62.1671L658.739 62.5507C660.45 62.9652 661.596 63.3664 662.178 63.7545C663.104 64.363 663.567 65.3198 663.567 66.6251C663.567 67.8862 663.086 68.9753 662.125 69.8925C661.173 70.8097 659.718 71.2682 657.76 71.2682C655.652 71.2682 654.157 70.792 653.275 69.8396C652.402 68.8783 651.935 67.6921 651.873 66.2811H654.162ZM668.673 56.5582V65.9636C668.673 66.6868 668.788 67.2777 669.017 67.7362C669.44 68.5829 670.23 69.0062 671.385 69.0062C673.043 69.0062 674.172 68.2654 674.772 66.7838C675.098 65.9901 675.261 64.9009 675.261 63.5164V56.5582H677.642V70.7259H675.393L675.42 68.6358C675.111 69.1737 674.727 69.6279 674.269 69.9983C673.361 70.7391 672.258 71.1095 670.962 71.1095C668.942 71.1095 667.566 70.4348 666.834 69.0855C666.438 68.3624 666.239 67.3967 666.239 66.1885V56.5582H668.673ZM681.439 51.2933H683.82V70.7259H681.439V51.2933ZM687.471 51.2933H689.852V70.7259H687.471V51.2933ZM695.262 66.9558C695.262 67.6436 695.514 68.186 696.016 68.5829C696.519 68.9797 697.114 69.1781 697.802 69.1781C698.64 69.1781 699.451 68.9841 700.236 68.5961C701.559 67.9523 702.221 66.8984 702.221 65.4345V63.5164C701.93 63.7016 701.555 63.8559 701.096 63.9794C700.638 64.1028 700.188 64.191 699.747 64.2439L698.305 64.4291C697.441 64.5438 696.793 64.7246 696.36 64.9715C695.628 65.386 695.262 66.0474 695.262 66.9558ZM701.03 62.1406C701.577 62.07 701.943 61.8408 702.128 61.4527C702.234 61.2411 702.287 60.9368 702.287 60.54C702.287 59.7286 701.996 59.1421 701.414 58.7806C700.84 58.4102 700.016 58.225 698.94 58.225C697.697 58.225 696.815 58.5601 696.294 59.2303C696.003 59.6007 695.814 60.1519 695.725 60.8839H693.503C693.547 59.1377 694.112 57.9251 695.196 57.2461C696.29 56.5582 697.555 56.2142 698.993 56.2142C700.66 56.2142 702.013 56.5317 703.054 57.1667C704.086 57.8017 704.602 58.7894 704.602 60.1299V68.2918C704.602 68.5388 704.65 68.7372 704.747 68.8871C704.853 69.037 705.069 69.112 705.395 69.112C705.501 69.112 705.62 69.1076 705.753 69.0988C705.885 69.0811 706.026 69.0591 706.176 69.0326V70.792C705.806 70.8978 705.523 70.964 705.329 70.9904C705.135 71.0169 704.871 71.0301 704.536 71.0301C703.715 71.0301 703.12 70.7391 702.75 70.1571C702.556 69.8484 702.419 69.4118 702.34 68.8474C701.855 69.4824 701.158 70.0336 700.25 70.501C699.341 70.9684 698.34 71.2021 697.247 71.2021C695.933 71.2021 694.857 70.8052 694.019 70.0115C693.19 69.209 692.776 68.2081 692.776 67.0087C692.776 65.6946 693.186 64.6761 694.006 63.9529C694.826 63.2297 695.902 62.7844 697.234 62.6168L701.03 62.1406ZM715.872 51.2271H718.187V58.2779C718.708 57.5988 719.329 57.0829 720.053 56.7302C720.776 56.3686 721.561 56.1878 722.407 56.1878C724.171 56.1878 725.6 56.7963 726.693 58.0133C727.796 59.2215 728.347 61.0074 728.347 63.3708C728.347 65.6109 727.805 67.4717 726.72 68.9533C725.635 70.4348 724.131 71.1756 722.209 71.1756C721.133 71.1756 720.225 70.9155 719.484 70.3952C719.043 70.0865 718.571 69.5926 718.068 68.9136V70.7259H715.872V51.2271ZM722.063 69.0723C723.351 69.0723 724.312 68.5608 724.947 67.5378C725.591 66.5148 725.913 65.1655 725.913 63.4899C725.913 61.9995 725.591 60.7648 724.947 59.7859C724.312 58.807 723.373 58.3176 722.129 58.3176C721.045 58.3176 720.092 58.7188 719.272 59.5214C718.461 60.3239 718.055 61.6467 718.055 63.4899C718.055 64.8216 718.223 65.9019 718.558 66.7309C719.184 68.2918 720.352 69.0723 722.063 69.0723ZM732.964 66.9558C732.964 67.6436 733.215 68.186 733.718 68.5829C734.22 68.9797 734.816 69.1781 735.503 69.1781C736.341 69.1781 737.153 68.9841 737.938 68.5961C739.26 67.9523 739.922 66.8984 739.922 65.4345V63.5164C739.631 63.7016 739.256 63.8559 738.797 63.9794C738.339 64.1028 737.889 64.191 737.448 64.2439L736.006 64.4291C735.142 64.5438 734.494 64.7246 734.062 64.9715C733.33 65.386 732.964 66.0474 732.964 66.9558ZM738.731 62.1406C739.278 62.07 739.644 61.8408 739.829 61.4527C739.935 61.2411 739.988 60.9368 739.988 60.54C739.988 59.7286 739.697 59.1421 739.115 58.7806C738.542 58.4102 737.717 58.225 736.641 58.225C735.398 58.225 734.516 58.5601 733.995 59.2303C733.704 59.6007 733.515 60.1519 733.427 60.8839H731.204C731.248 59.1377 731.813 57.9251 732.897 57.2461C733.991 56.5582 735.257 56.2142 736.694 56.2142C738.361 56.2142 739.715 56.5317 740.755 57.1667C741.787 57.8017 742.303 58.7894 742.303 60.1299V68.2918C742.303 68.5388 742.351 68.7372 742.448 68.8871C742.554 69.037 742.77 69.112 743.097 69.112C743.202 69.112 743.321 69.1076 743.454 69.0988C743.586 69.0811 743.727 69.0591 743.877 69.0326V70.792C743.507 70.8978 743.224 70.964 743.03 70.9904C742.836 71.0169 742.572 71.0301 742.237 71.0301C741.417 71.0301 740.821 70.7391 740.451 70.1571C740.257 69.8484 740.12 69.4118 740.041 68.8474C739.556 69.4824 738.859 70.0336 737.951 70.501C737.042 70.9684 736.041 71.2021 734.948 71.2021C733.634 71.2021 732.558 70.8052 731.72 70.0115C730.891 69.209 730.477 68.2081 730.477 67.0087C730.477 65.6946 730.887 64.6761 731.707 63.9529C732.527 63.2297 733.603 62.7844 734.935 62.6168L738.731 62.1406ZM747.634 66.2811C747.705 67.0748 747.903 67.6833 748.229 68.1066C748.829 68.8739 749.87 69.2575 751.351 69.2575C752.233 69.2575 753.009 69.0679 753.679 68.6887C754.35 68.3007 754.685 67.7054 754.685 66.9028C754.685 66.2943 754.416 65.8313 753.878 65.5139C753.534 65.3198 752.855 65.095 751.841 64.8392L749.949 64.363C748.741 64.0631 747.85 63.728 747.277 63.3576C746.254 62.7138 745.742 61.8231 745.742 60.6855C745.742 59.345 746.223 58.2602 747.184 57.4313C748.154 56.6023 749.455 56.1878 751.087 56.1878C753.221 56.1878 754.76 56.8139 755.703 58.0662C756.294 58.8599 756.581 59.7154 756.563 60.6326H754.314C754.27 60.0946 754.081 59.6051 753.746 59.1642C753.199 58.538 752.251 58.225 750.901 58.225C750.002 58.225 749.318 58.3969 748.851 58.7409C748.392 59.0848 748.163 59.539 748.163 60.1034C748.163 60.7207 748.467 61.2146 749.076 61.585C749.429 61.8055 749.949 61.9995 750.637 62.1671L752.211 62.5507C753.922 62.9652 755.068 63.3664 755.65 63.7545C756.576 64.363 757.039 65.3198 757.039 66.6251C757.039 67.8862 756.559 68.9753 755.598 69.8925C754.645 70.8097 753.19 71.2682 751.232 71.2682C749.124 71.2682 747.63 70.792 746.748 69.8396C745.875 68.8783 745.407 67.6921 745.345 66.2811H747.634ZM765.664 56.2407C766.67 56.2407 767.644 56.4788 768.588 56.955C769.532 57.4224 770.25 58.031 770.744 58.7806C771.22 59.4949 771.538 60.3283 771.697 61.2807C771.838 61.9334 771.908 62.974 771.908 64.4027H761.524C761.568 65.8402 761.907 66.9954 762.542 67.8685C763.177 68.7328 764.161 69.1649 765.492 69.1649C766.736 69.1649 767.728 68.7548 768.469 67.9347C768.892 67.4584 769.192 66.9073 769.368 66.2811H771.71C771.648 66.8014 771.441 67.3835 771.088 68.0273C770.744 68.6622 770.356 69.1826 769.924 69.5882C769.201 70.2937 768.306 70.77 767.239 71.0169C766.665 71.158 766.017 71.2286 765.294 71.2286C763.53 71.2286 762.035 70.5892 760.81 69.3104C759.584 68.0229 758.971 66.2238 758.971 63.9132C758.971 61.6379 759.588 59.7903 760.823 58.3705C762.057 56.9506 763.671 56.2407 765.664 56.2407ZM769.461 62.511C769.364 61.4792 769.139 60.6546 768.786 60.0373C768.134 58.8908 767.045 58.3176 765.519 58.3176C764.425 58.3176 763.508 58.7144 762.767 59.5081C762.027 60.293 761.634 61.294 761.59 62.511H769.461ZM783.893 63.8074C783.893 65.3243 784.215 66.5942 784.859 67.6172C785.503 68.6402 786.534 69.1517 787.954 69.1517C789.057 69.1517 789.961 68.6799 790.666 67.7362C791.381 66.7838 791.738 65.4213 791.738 63.6486C791.738 61.8584 791.372 60.5355 790.64 59.6801C789.908 58.8158 789.004 58.3837 787.928 58.3837C786.729 58.3837 785.754 58.8423 785.004 59.7595C784.264 60.6766 783.893 62.026 783.893 63.8074ZM787.478 56.3068C788.563 56.3068 789.471 56.5361 790.203 56.9947C790.627 57.2593 791.107 57.7223 791.645 58.3837V51.2271H793.934V70.7259H791.791V68.7548C791.235 69.6279 790.578 70.2585 789.82 70.6465C789.061 71.0345 788.192 71.2286 787.214 71.2286C785.635 71.2286 784.268 70.5671 783.113 69.2443C781.957 67.9126 781.38 66.1444 781.38 63.9397C781.38 61.876 781.905 60.0902 782.954 58.5821C784.012 57.0653 785.52 56.3068 787.478 56.3068ZM797.466 56.6243H799.886V70.7259H797.466V56.6243ZM797.466 51.2933H799.886V53.9919H797.466V51.2933ZM816.66 69.1914C818.239 69.1914 819.319 68.5961 819.901 67.4055C820.492 66.2061 820.787 64.8745 820.787 63.4105C820.787 62.0877 820.576 61.0118 820.152 60.1828C819.482 58.8776 818.327 58.225 816.687 58.225C815.231 58.225 814.173 58.7806 813.512 59.8918C812.85 61.003 812.52 62.3434 812.52 63.9132C812.52 65.4213 812.85 66.678 813.512 67.6833C814.173 68.6887 815.223 69.1914 816.66 69.1914ZM816.753 56.1481C818.578 56.1481 820.122 56.7566 821.383 57.9736C822.644 59.1906 823.274 60.9809 823.274 63.3444C823.274 65.6285 822.719 67.5158 821.608 69.0062C820.496 70.4966 818.772 71.2418 816.435 71.2418C814.486 71.2418 812.939 70.5848 811.792 69.2707C810.646 67.9479 810.072 66.1753 810.072 63.9529C810.072 61.5718 810.676 59.6757 811.885 58.2647C813.093 56.8536 814.716 56.1481 816.753 56.1481ZM826.185 51.2933H828.566V70.7259H826.185V51.2933ZM832.627 52.6029H835.034V56.5582H837.297V58.5028H835.034V67.7495C835.034 68.2433 835.202 68.574 835.537 68.7416C835.722 68.8386 836.031 68.8871 836.463 68.8871C836.578 68.8871 836.701 68.8871 836.834 68.8871C836.966 68.8783 837.12 68.8651 837.297 68.8474V70.7259C837.023 70.8052 836.737 70.8626 836.437 70.8978C836.146 70.9331 835.828 70.9508 835.484 70.9508C834.373 70.9508 833.619 70.6686 833.222 70.1041C832.825 69.5309 832.627 68.7901 832.627 67.8818V58.5028H830.709V56.5582H832.627V52.6029ZM839.757 56.5582H842.019V59.0055C842.204 58.5292 842.658 57.9516 843.382 57.2725C844.105 56.5846 844.938 56.2407 845.882 56.2407C845.926 56.2407 846.001 56.2451 846.107 56.2539C846.213 56.2627 846.393 56.2804 846.649 56.3068V58.8203C846.508 58.7938 846.376 58.7762 846.252 58.7673C846.138 58.7585 846.01 58.7541 845.869 58.7541C844.669 58.7541 843.748 59.1421 843.104 59.9182C842.46 60.6855 842.138 61.5718 842.138 62.5771V70.7259H839.757V56.5582ZM854.613 56.2407C855.618 56.2407 856.592 56.4788 857.536 56.955C858.48 57.4224 859.198 58.031 859.692 58.7806C860.169 59.4949 860.486 60.3283 860.645 61.2807C860.786 61.9334 860.856 62.974 860.856 64.4027H850.472C850.516 65.8402 850.856 66.9954 851.491 67.8685C852.126 68.7328 853.109 69.1649 854.441 69.1649C855.684 69.1649 856.676 68.7548 857.417 67.9347C857.84 67.4584 858.14 66.9073 858.317 66.2811H860.658C860.596 66.8014 860.389 67.3835 860.036 68.0273C859.692 68.6622 859.304 69.1826 858.872 69.5882C858.149 70.2937 857.254 70.77 856.187 71.0169C855.614 71.158 854.965 71.2286 854.242 71.2286C852.478 71.2286 850.984 70.5892 849.758 69.3104C848.532 68.0229 847.919 66.2238 847.919 63.9132C847.919 61.6379 848.536 59.7903 849.771 58.3705C851.006 56.9506 852.62 56.2407 854.613 56.2407ZM858.409 62.511C858.312 61.4792 858.087 60.6546 857.735 60.0373C857.082 58.8908 855.993 58.3176 854.467 58.3176C853.374 58.3176 852.456 58.7144 851.716 59.5081C850.975 60.293 850.582 61.294 850.538 62.511H858.409ZM872.18 57.3122V55.4867C873.9 55.3191 875.099 55.0413 875.778 54.6533C876.457 54.2564 876.964 53.326 877.299 51.8621H879.178V70.7259H876.638V57.3122H872.18ZM891.996 51.7827C894.448 51.7827 896.221 52.7925 897.314 54.812C898.161 56.373 898.584 58.5116 898.584 61.2278C898.584 63.803 898.2 65.9328 897.433 67.6172C896.322 70.0336 894.505 71.2418 891.983 71.2418C889.708 71.2418 888.015 70.2541 886.903 68.2786C885.977 66.6295 885.514 64.4159 885.514 61.6379C885.514 59.4861 885.792 57.6385 886.348 56.0952C887.388 53.2202 889.271 51.7827 891.996 51.7827ZM891.97 69.0723C893.204 69.0723 894.188 68.5255 894.92 67.432C895.652 66.3384 896.018 64.3012 896.018 61.3204C896.018 59.1686 895.753 57.4004 895.224 56.0158C894.695 54.6224 893.667 53.9257 892.142 53.9257C890.74 53.9257 889.712 54.5871 889.06 55.91C888.416 57.224 888.094 59.1642 888.094 61.7305C888.094 63.6619 888.301 65.214 888.716 66.3869C889.351 68.1772 890.435 69.0723 891.97 69.0723ZM909.035 56.5582H911.389V58.5689C911.954 57.8722 912.465 57.3651 912.924 57.0476C913.709 56.5097 914.599 56.2407 915.596 56.2407C916.725 56.2407 917.633 56.5185 918.321 57.0741C918.709 57.3916 919.062 57.859 919.379 58.4763C919.908 57.7179 920.53 57.1579 921.244 56.7963C921.959 56.4259 922.761 56.2407 923.652 56.2407C925.557 56.2407 926.853 56.9286 927.541 58.3043C927.912 59.0451 928.097 60.0417 928.097 61.294V70.7259H925.623V60.8839C925.623 59.9403 925.385 59.2921 924.909 58.9393C924.441 58.5865 923.868 58.4102 923.189 58.4102C922.254 58.4102 921.447 58.7232 920.768 59.3494C920.098 59.9755 919.763 61.0206 919.763 62.4845V70.7259H917.342V61.4792C917.342 60.5179 917.227 59.8168 916.998 59.3758C916.637 58.7144 915.962 58.3837 914.974 58.3837C914.075 58.3837 913.254 58.7321 912.514 59.4288C911.782 60.1255 911.416 61.3866 911.416 63.2121V70.7259H909.035V56.5582ZM931.602 56.6243H934.023V70.7259H931.602V56.6243ZM931.602 51.2933H934.023V53.9919H931.602V51.2933ZM937.701 51.2933H940.082V70.7259H937.701V51.2933ZM945.492 66.9558C945.492 67.6436 945.744 68.186 946.246 68.5829C946.749 68.9797 947.344 69.1781 948.032 69.1781C948.87 69.1781 949.681 68.9841 950.466 68.5961C951.789 67.9523 952.45 66.8984 952.45 65.4345V63.5164C952.159 63.7016 951.785 63.8559 951.326 63.9794C950.867 64.1028 950.418 64.191 949.977 64.2439L948.535 64.4291C947.671 64.5438 947.022 64.7246 946.59 64.9715C945.858 65.386 945.492 66.0474 945.492 66.9558ZM951.26 62.1406C951.807 62.07 952.173 61.8408 952.358 61.4527C952.464 61.2411 952.517 60.9368 952.517 60.54C952.517 59.7286 952.226 59.1421 951.643 58.7806C951.07 58.4102 950.246 58.225 949.17 58.225C947.926 58.225 947.044 58.5601 946.524 59.2303C946.233 59.6007 946.043 60.1519 945.955 60.8839H943.733C943.777 59.1377 944.341 57.9251 945.426 57.2461C946.52 56.5582 947.785 56.2142 949.223 56.2142C950.889 56.2142 952.243 56.5317 953.284 57.1667C954.316 57.8017 954.832 58.7894 954.832 60.1299V68.2918C954.832 68.5388 954.88 68.7372 954.977 68.8871C955.083 69.037 955.299 69.112 955.625 69.112C955.731 69.112 955.85 69.1076 955.982 69.0988C956.115 69.0811 956.256 69.0591 956.406 69.0326V70.792C956.035 70.8978 955.753 70.964 955.559 70.9904C955.365 71.0169 955.1 71.0301 954.765 71.0301C953.945 71.0301 953.35 70.7391 952.98 70.1571C952.786 69.8484 952.649 69.4118 952.569 68.8474C952.084 69.4824 951.388 70.0336 950.479 70.501C949.571 70.9684 948.57 71.2021 947.476 71.2021C946.162 71.2021 945.087 70.8052 944.249 70.0115C943.42 69.209 943.005 68.2081 943.005 67.0087C943.005 65.6946 943.415 64.6761 944.236 63.9529C945.056 63.2297 946.132 62.7844 947.463 62.6168L951.26 62.1406ZM966.353 56.5582H968.616V59.0055C968.801 58.5292 969.255 57.9516 969.978 57.2725C970.701 56.5846 971.535 56.2407 972.478 56.2407C972.522 56.2407 972.597 56.2451 972.703 56.2539C972.809 56.2627 972.99 56.2804 973.246 56.3068V58.8203C973.104 58.7938 972.972 58.7762 972.849 58.7673C972.734 58.7585 972.606 58.7541 972.465 58.7541C971.266 58.7541 970.344 59.1421 969.7 59.9182C969.057 60.6855 968.735 61.5718 968.735 62.5771V70.7259H966.353V56.5582ZM981.209 56.2407C982.214 56.2407 983.189 56.4788 984.133 56.955C985.076 57.4224 985.795 58.031 986.289 58.7806C986.765 59.4949 987.083 60.3283 987.241 61.2807C987.382 61.9334 987.453 62.974 987.453 64.4027H977.069C977.113 65.8402 977.452 66.9954 978.087 67.8685C978.722 68.7328 979.705 69.1649 981.037 69.1649C982.281 69.1649 983.273 68.7548 984.014 67.9347C984.437 67.4584 984.737 66.9073 984.913 66.2811H987.254C987.193 66.8014 986.986 67.3835 986.633 68.0273C986.289 68.6622 985.901 69.1826 985.469 69.5882C984.745 70.2937 983.85 70.77 982.783 71.0169C982.21 71.158 981.562 71.2286 980.839 71.2286C979.075 71.2286 977.58 70.5892 976.354 69.3104C975.128 68.0229 974.515 66.2238 974.515 63.9132C974.515 61.6379 975.133 59.7903 976.367 58.3705C977.602 56.9506 979.216 56.2407 981.209 56.2407ZM985.006 62.511C984.909 61.4792 984.684 60.6546 984.331 60.0373C983.678 58.8908 982.589 58.3176 981.064 58.3176C979.97 58.3176 979.053 58.7144 978.312 59.5081C977.571 60.293 977.179 61.294 977.135 62.511H985.006ZM995.853 56.1481C997.449 56.1481 998.746 56.5361 999.742 57.3122C1000.75 58.0883 1001.35 59.4244 1001.55 61.3204H999.239C999.098 60.4474 998.777 59.7242 998.274 59.151C997.771 58.5689 996.964 58.2779 995.853 58.2779C994.336 58.2779 993.251 59.0187 992.599 60.5003C992.175 61.4615 991.964 62.6477 991.964 64.0587C991.964 65.4786 992.264 66.6736 992.863 67.6436C993.463 68.6137 994.407 69.0988 995.694 69.0988C996.682 69.0988 997.462 68.7989 998.036 68.1992C998.618 67.5907 999.019 66.7617 999.239 65.7123H1001.55C1001.29 67.5907 1000.63 68.9665 999.57 69.8396C998.512 70.7038 997.158 71.136 995.509 71.136C993.657 71.136 992.18 70.4613 991.078 69.112C989.975 67.7539 989.424 66.0606 989.424 64.0323C989.424 61.5453 990.028 59.6096 991.236 58.225C992.444 56.8404 993.983 56.1481 995.853 56.1481ZM1009.84 56.2407C1010.84 56.2407 1011.82 56.4788 1012.76 56.955C1013.7 57.4224 1014.42 58.031 1014.92 58.7806C1015.39 59.4949 1015.71 60.3283 1015.87 61.2807C1016.01 61.9334 1016.08 62.974 1016.08 64.4027H1005.69C1005.74 65.8402 1006.08 66.9954 1006.71 67.8685C1007.35 68.7328 1008.33 69.1649 1009.66 69.1649C1010.91 69.1649 1011.9 68.7548 1012.64 67.9347C1013.06 67.4584 1013.36 66.9073 1013.54 66.2811H1015.88C1015.82 66.8014 1015.61 67.3835 1015.26 68.0273C1014.92 68.6622 1014.53 69.1826 1014.1 69.5882C1013.37 70.2937 1012.48 70.77 1011.41 71.0169C1010.84 71.158 1010.19 71.2286 1009.47 71.2286C1007.7 71.2286 1006.21 70.5892 1004.98 69.3104C1003.75 68.0229 1003.14 66.2238 1003.14 63.9132C1003.14 61.6379 1003.76 59.7903 1004.99 58.3705C1006.23 56.9506 1007.84 56.2407 1009.84 56.2407ZM1013.63 62.511C1013.54 61.4792 1013.31 60.6546 1012.96 60.0373C1012.3 58.8908 1011.22 58.3176 1009.69 58.3176C1008.6 58.3176 1007.68 58.7144 1006.94 59.5081C1006.2 60.293 1005.81 61.294 1005.76 62.511H1013.63ZM1019.02 56.5582H1021.28V58.5689C1021.95 57.7399 1022.66 57.1446 1023.41 56.7831C1024.16 56.4215 1024.99 56.2407 1025.91 56.2407C1027.92 56.2407 1029.28 56.9418 1029.98 58.344C1030.37 59.1113 1030.56 60.2092 1030.56 61.6379V70.7259H1028.14V61.7967C1028.14 60.9324 1028.02 60.2357 1027.76 59.7066C1027.34 58.8247 1026.57 58.3837 1025.46 58.3837C1024.89 58.3837 1024.43 58.441 1024.07 58.5557C1023.42 58.7497 1022.84 59.1377 1022.35 59.7198C1021.95 60.1872 1021.69 60.6722 1021.57 61.1749C1021.45 61.6688 1021.4 62.3787 1021.4 63.3047V70.7259H1019.02V56.5582ZM1035.51 66.2811C1035.58 67.0748 1035.78 67.6833 1036.11 68.1066C1036.71 68.8739 1037.75 69.2575 1039.23 69.2575C1040.11 69.2575 1040.89 69.0679 1041.56 68.6887C1042.23 68.3007 1042.56 67.7054 1042.56 66.9028C1042.56 66.2943 1042.29 65.8313 1041.76 65.5139C1041.41 65.3198 1040.73 65.095 1039.72 64.8392L1037.83 64.363C1036.62 64.0631 1035.73 63.728 1035.15 63.3576C1034.13 62.7138 1033.62 61.8231 1033.62 60.6855C1033.62 59.345 1034.1 58.2602 1035.06 57.4313C1036.03 56.6023 1037.33 56.1878 1038.96 56.1878C1041.1 56.1878 1042.64 56.8139 1043.58 58.0662C1044.17 58.8599 1044.46 59.7154 1044.44 60.6326H1042.19C1042.15 60.0946 1041.96 59.6051 1041.62 59.1642C1041.08 58.538 1040.13 58.225 1038.78 58.225C1037.88 58.225 1037.2 58.3969 1036.73 58.7409C1036.27 59.0848 1036.04 59.539 1036.04 60.1034C1036.04 60.7207 1036.35 61.2146 1036.95 61.585C1037.31 61.8055 1037.83 61.9995 1038.51 62.1671L1040.09 62.5507C1041.8 62.9652 1042.95 63.3664 1043.53 63.7545C1044.45 64.363 1044.92 65.3198 1044.92 66.6251C1044.92 67.8862 1044.44 68.9753 1043.48 69.8925C1042.52 70.8097 1041.07 71.2682 1039.11 71.2682C1037 71.2682 1035.51 70.792 1034.63 69.8396C1033.75 68.8783 1033.29 67.6921 1033.22 66.2811H1035.51ZM1047.64 56.6243H1050.06V70.7259H1047.64V56.6243ZM1047.64 51.2933H1050.06V53.9919H1047.64V51.2933ZM1059.3 69.1914C1060.88 69.1914 1061.96 68.5961 1062.54 67.4055C1063.13 66.2061 1063.42 64.8745 1063.42 63.4105C1063.42 62.0877 1063.21 61.0118 1062.79 60.1828C1062.12 58.8776 1060.96 58.225 1059.32 58.225C1057.87 58.225 1056.81 58.7806 1056.15 59.8918C1055.49 61.003 1055.16 62.3434 1055.16 63.9132C1055.16 65.4213 1055.49 66.678 1056.15 67.6833C1056.81 68.6887 1057.86 69.1914 1059.3 69.1914ZM1059.39 56.1481C1061.21 56.1481 1062.76 56.7566 1064.02 57.9736C1065.28 59.1906 1065.91 60.9809 1065.91 63.3444C1065.91 65.6285 1065.36 67.5158 1064.24 69.0062C1063.13 70.4966 1061.41 71.2418 1059.07 71.2418C1057.12 71.2418 1055.58 70.5848 1054.43 69.2707C1053.28 67.9479 1052.71 66.1753 1052.71 63.9529C1052.71 61.5718 1053.31 59.6757 1054.52 58.2647C1055.73 56.8536 1057.35 56.1481 1059.39 56.1481ZM1068.76 56.5582H1071.02V58.5689C1071.69 57.7399 1072.4 57.1446 1073.15 56.7831C1073.9 56.4215 1074.73 56.2407 1075.65 56.2407C1077.66 56.2407 1079.02 56.9418 1079.72 58.344C1080.11 59.1113 1080.3 60.2092 1080.3 61.6379V70.7259H1077.88V61.7967C1077.88 60.9324 1077.75 60.2357 1077.5 59.7066C1077.08 58.8247 1076.31 58.3837 1075.2 58.3837C1074.63 58.3837 1074.17 58.441 1073.81 58.5557C1073.16 58.7497 1072.58 59.1377 1072.09 59.7198C1071.69 60.1872 1071.43 60.6722 1071.31 61.1749C1071.19 61.6688 1071.14 62.3787 1071.14 63.3047V70.7259H1068.76V56.5582ZM1083.84 56.6243H1086.26V70.7259H1083.84V56.6243ZM1083.84 51.2933H1086.26V53.9919H1083.84V51.2933Z" fill="black"/>
<g filter="url(#filter0_d_329_17)">
<path d="M294.524 0.131439H215.95V73.2449H294.524V0.131439Z" fill="#1FB584"/>
<path d="M379.647 0.131477H301.073V73.2449H379.647V0.131477Z" fill="#1FB584"/>
<path d="M464.766 0.131477H386.191V73.2449H464.766V0.131477Z" fill="#1FB584"/>
<path d="M549.888 0.131477H471.314V73.2449H549.888V0.131477Z" fill="#1FB584"/>
<path d="M635.013 0.131477H556.439V73.2449H635.013V0.131477Z" fill="#1FB584"/>
<path d="M255.235 49.4062L267.185 46.5883L272.177 60.9063L255.235 49.4062ZM282.736 30.8994H261.701L255.235 12.4687L248.769 30.8994H227.734L244.758 42.3233L238.292 60.754L255.317 49.33L265.793 42.3233L282.736 30.8994Z" fill="white"/>
<path d="M340.363 49.4062L352.312 46.5883L357.305 60.9063L340.363 49.4062ZM367.864 30.8994H346.829L340.363 12.4687L333.897 30.8994H312.862L329.886 42.3233L323.42 60.754L340.445 49.33L350.921 42.3233L367.864 30.8994Z" fill="white"/>
<path d="M425.482 49.4062L437.432 46.5883L442.425 60.9063L425.482 49.4062ZM452.983 30.8994H431.948L425.482 12.4687L419.016 30.8994H397.981L415.006 42.3233L408.54 60.754L425.564 49.33L436.041 42.3233L452.983 30.8994Z" fill="white"/>
<path d="M510.605 53.0865L522.555 50.0581L527.548 65.4455L510.605 53.0865ZM538.106 33.1974H517.071L510.605 13.3901L504.139 33.1974H483.104L500.128 45.4746L493.662 65.2818L510.687 53.0046L521.163 45.4746L538.106 33.1974Z" fill="white"/>
<path d="M595.727 49.4062L607.677 46.5883L612.669 60.9063L595.727 49.4062ZM623.228 30.8994H602.193L595.727 12.4687L589.261 30.8994H568.226L585.25 42.3233L578.784 60.754L595.809 49.33L606.285 42.3233L623.228 30.8994Z" fill="white"/>
</g>
<path d="M44.7012 13.894H61.9412V16.9002H55.1733V33.7195H51.4412V16.9002H44.7012V13.894ZM61.1892 19.3622H64.3921V22.1351H64.4478C64.5592 21.7464 64.7542 21.3577 65.0327 20.9949C65.3112 20.632 65.6733 20.2951 66.0632 19.9841C66.4809 19.6732 66.9266 19.4399 67.4279 19.2585C67.9292 19.0771 68.4305 18.9734 68.9597 18.9734C69.3496 18.9734 69.6281 18.9734 69.7674 18.9994C69.9067 19.0253 70.0738 19.0253 70.2409 19.0512V22.1092C69.9902 22.0833 69.7674 22.0315 69.5167 22.0056C69.2661 21.9797 69.0154 21.9537 68.7926 21.9537C68.2077 21.9537 67.6785 22.0574 67.1772 22.2647C66.6759 22.4721 66.2303 22.783 65.8404 23.1977C65.4504 23.6123 65.1719 24.1307 64.9491 24.7267C64.7263 25.3487 64.6149 26.0484 64.6149 26.8259V33.6417H61.217V19.3622H61.1892ZM85.8097 33.7195H82.4676V31.7239H82.4119C81.9941 32.4496 81.3814 33.0197 80.5458 33.4603C79.7103 33.9009 78.8748 34.1082 78.0392 34.1082C76.0061 34.1082 74.5578 33.6417 73.6387 32.7087C72.7475 31.7758 72.274 30.3763 72.274 28.4845V19.3622H75.6719V28.1476C75.6719 29.4175 75.9225 30.2986 76.4517 30.8169C76.9809 31.3352 77.705 31.5944 78.6241 31.5944C79.3482 31.5944 79.9331 31.4907 80.4066 31.2834C80.8801 31.0761 81.27 30.8169 81.5763 30.4541C81.8827 30.1172 82.0777 29.7025 82.2169 29.2101C82.3562 28.7177 82.4119 28.1994 82.4119 27.6552V19.3622H85.8097V33.7195ZM91.6028 29.1065C91.7142 30.0394 92.0763 30.6873 92.7447 31.0501C93.4131 31.413 94.193 31.5944 95.1121 31.5944C95.4184 31.5944 95.7805 31.5685 96.1983 31.5166C96.616 31.4648 96.9781 31.387 97.3402 31.2575C97.7022 31.1279 97.9807 30.9465 98.2314 30.6873C98.4542 30.4282 98.5656 30.1172 98.5378 29.7025C98.5099 29.2879 98.3707 28.951 98.0643 28.6918C97.7579 28.4327 97.3959 28.2253 96.9224 28.0698C96.4489 27.9143 95.9198 27.7848 95.3349 27.6552C94.75 27.5515 94.1373 27.4219 93.5245 27.2924C92.884 27.1628 92.2712 27.0073 91.6864 26.8259C91.1015 26.6445 90.5723 26.3853 90.0988 26.0743C89.6254 25.7633 89.2633 25.3487 88.9848 24.8563C88.7063 24.3639 88.567 23.7678 88.567 23.0422C88.567 22.2647 88.762 21.6168 89.1797 21.0985C89.5975 20.5802 90.0988 20.1396 90.7394 19.8287C91.3521 19.5177 92.0484 19.2844 92.8283 19.1548C93.5802 19.0253 94.3322 18.9734 95.0285 18.9734C95.8362 18.9734 96.5882 19.0512 97.3123 19.2067C98.0364 19.3622 98.7049 19.6213 99.2898 19.9582C99.8746 20.3211 100.376 20.7616 100.738 21.3318C101.128 21.9019 101.379 22.5757 101.462 23.3791H97.925C97.7579 22.6275 97.3959 22.1092 96.811 21.8501C96.2261 21.5909 95.5577 21.4613 94.8057 21.4613C94.555 21.4613 94.2765 21.4873 93.9423 21.5132C93.6081 21.5391 93.3017 21.6168 93.0232 21.7205C92.7447 21.8242 92.494 21.9797 92.2991 22.1611C92.1041 22.3425 91.9927 22.6016 91.9927 22.9126C91.9927 23.3014 92.132 23.6123 92.4383 23.8456C92.7169 24.0788 93.1068 24.2862 93.5802 24.4416C94.0537 24.5971 94.5829 24.7267 95.1678 24.8563C95.7526 24.96 96.3932 25.0895 97.006 25.2191C97.6187 25.3487 98.2314 25.5042 98.8163 25.6856C99.4012 25.867 99.9303 26.1262 100.404 26.4372C100.877 26.7481 101.239 27.1369 101.546 27.6293C101.824 28.1217 101.991 28.6918 101.991 29.3915C101.991 30.2468 101.796 30.9724 101.379 31.5425C100.961 32.1386 100.432 32.6051 99.7632 32.9938C99.0948 33.3566 98.3707 33.6417 97.5351 33.7972C96.7274 33.9527 95.9198 34.0564 95.1121 34.0564C94.1373 34.0564 93.246 33.9527 92.4105 33.7454C91.5749 33.538 90.8787 33.2271 90.2659 32.8124C89.6532 32.3978 89.1797 31.8794 88.8455 31.2575C88.5113 30.6355 88.3164 29.9098 88.2885 29.0546H91.6028V29.1065ZM102.799 19.3622H105.361V15.0602H108.759V19.3622H111.823V21.7205H108.759V29.3656C108.759 29.7025 108.787 29.9876 108.815 30.2208C108.843 30.4541 108.926 30.6614 109.01 30.8428C109.121 30.9983 109.288 31.1279 109.511 31.2056C109.734 31.2834 110.04 31.3352 110.402 31.3352C110.653 31.3352 110.876 31.3352 111.127 31.3093C111.377 31.3093 111.6 31.2575 111.851 31.2056V33.6417C111.461 33.6676 111.099 33.7195 110.737 33.7454C110.375 33.7713 110.012 33.7972 109.623 33.7972C108.731 33.7972 108.007 33.7195 107.45 33.564C106.893 33.4085 106.475 33.1752 106.169 32.8642C105.863 32.5532 105.64 32.1645 105.556 31.7239C105.445 31.2575 105.389 30.7392 105.361 30.1431V21.7205H102.799V19.3622ZM114.218 19.3622H117.449V21.3058H117.505C117.978 20.4765 118.646 19.8805 119.51 19.5177C120.373 19.1548 121.292 18.9734 122.295 18.9734C123.52 18.9734 124.579 19.1808 125.47 19.5695C126.361 19.9582 127.113 20.5025 127.726 21.2022C128.311 21.9019 128.756 22.7053 129.063 23.6383C129.369 24.5712 129.508 25.556 129.508 26.6186C129.508 27.5774 129.369 28.5104 129.118 29.4175C128.84 30.3245 128.45 31.1279 127.893 31.8276C127.336 32.5273 126.668 33.0716 125.832 33.4862C124.996 33.9009 124.022 34.1082 122.88 34.1082C122.378 34.1082 121.877 34.0564 121.376 33.9786C120.874 33.9009 120.401 33.7713 119.955 33.564C119.51 33.3825 119.064 33.1493 118.702 32.8642C118.312 32.5792 117.978 32.2423 117.727 31.8535H117.616V39.0062H114.218V19.3622ZM126.083 26.5408C126.083 25.8929 125.999 25.2709 125.804 24.649C125.637 24.027 125.359 23.5087 124.996 23.0163C124.634 22.5498 124.189 22.1611 123.66 21.876C123.13 21.5909 122.518 21.4354 121.821 21.4354C120.401 21.4354 119.315 21.9019 118.591 22.8349C117.867 23.7678 117.505 24.9859 117.505 26.5149C117.505 27.2405 117.588 27.9143 117.783 28.5363C117.978 29.1583 118.256 29.6766 118.646 30.1431C119.036 30.5837 119.482 30.9465 120.011 31.2056C120.54 31.4648 121.153 31.5944 121.849 31.5944C122.629 31.5944 123.27 31.4389 123.827 31.1538C124.356 30.8687 124.802 30.48 125.164 30.0135C125.498 29.547 125.748 29.0028 125.916 28.4067C125.999 27.7848 126.083 27.1887 126.083 26.5408ZM132.071 13.894H135.469V16.9002H132.071V13.894ZM132.071 19.3622H135.469V33.6935H132.071V19.3622ZM138.504 13.894H141.902V33.6935H138.504V13.894ZM152.319 34.1082C151.093 34.1082 149.979 33.9268 149.032 33.538C148.057 33.1493 147.25 32.631 146.581 31.9831C145.913 31.3093 145.411 30.5318 145.049 29.5989C144.715 28.6659 144.52 27.6552 144.52 26.5408C144.52 25.4524 144.687 24.4416 145.049 23.5087C145.384 22.5757 145.913 21.7982 146.581 21.1244C147.25 20.4506 148.057 19.9323 149.032 19.5695C150.007 19.1808 151.093 18.9994 152.319 18.9994C153.544 18.9994 154.658 19.1808 155.605 19.5695C156.58 19.9582 157.388 20.4765 158.056 21.1244C158.724 21.7982 159.226 22.5757 159.588 23.5087C159.922 24.4416 160.117 25.4524 160.117 26.5408C160.117 27.6552 159.95 28.6659 159.588 29.5989C159.254 30.5318 158.724 31.3093 158.056 31.9831C157.388 32.6569 156.58 33.1752 155.605 33.538C154.63 33.9009 153.544 34.1082 152.319 34.1082ZM152.319 31.5944C153.071 31.5944 153.739 31.4389 154.296 31.1538C154.853 30.8687 155.299 30.48 155.661 29.9876C156.023 29.4952 156.273 28.9769 156.441 28.3549C156.608 27.7588 156.691 27.1369 156.691 26.5149C156.691 25.8929 156.608 25.2969 156.441 24.6749C156.273 24.0529 155.995 23.5346 155.661 23.0422C155.299 22.5757 154.853 22.187 154.296 21.9019C153.739 21.6168 153.071 21.4613 152.319 21.4613C151.567 21.4613 150.898 21.6168 150.341 21.9019C149.784 22.187 149.339 22.5757 148.976 23.0422C148.614 23.5087 148.364 24.0529 148.197 24.6749C148.03 25.2969 147.946 25.8929 147.946 26.5149C147.946 27.1369 148.03 27.7588 148.197 28.3549C148.364 28.951 148.642 29.4952 148.976 29.9876C149.339 30.48 149.784 30.8687 150.341 31.1538C150.898 31.4648 151.567 31.5944 152.319 31.5944ZM161.064 19.3622H163.626V15.0602H167.024V19.3622H170.088V21.7205H167.024V29.3656C167.024 29.7025 167.052 29.9876 167.08 30.2208C167.108 30.4541 167.191 30.6614 167.275 30.8428C167.386 30.9983 167.553 31.1279 167.776 31.2056C167.999 31.2834 168.305 31.3352 168.667 31.3352C168.918 31.3352 169.141 31.3352 169.391 31.3093C169.642 31.3093 169.865 31.2575 170.116 31.2056V33.6417C169.726 33.6676 169.364 33.7195 169.002 33.7454C168.639 33.7713 168.277 33.7972 167.887 33.7972C166.996 33.7972 166.272 33.7195 165.715 33.564C165.158 33.4085 164.74 33.1752 164.434 32.8642C164.128 32.5532 163.905 32.1645 163.821 31.7239C163.71 31.2575 163.654 30.7392 163.626 30.1431V21.7205H161.064V19.3622Z" fill="#1A1A18"/>
<path d="M40.7464 13.8925H25.1776L20.3871 0.131271L15.5689 13.8925H0L12.5888 22.4187L7.79836 36.18L20.3871 27.6796L32.9759 36.18L28.1576 22.4187L40.7464 13.8925Z" fill="#20AC79"/>
<path d="M29.2435 25.5269L28.1573 22.417L20.3868 27.6779L29.2435 25.5269Z" fill="#00532C"/>
<path d="M664.112 26.6866V14.1172L655.222 26.6866H664.112ZM664.17 36.5058V29.7272H652.007V26.3186L664.712 8.69436H667.656V26.6866H671.742V29.7272H667.656V36.5058H664.17ZM676.468 32.2837H680.516V36.5058H676.468V32.2837ZM689.386 29.8047C689.489 31.7285 690.232 33.0584 691.613 33.7944C692.323 34.1817 693.124 34.3754 694.015 34.3754C695.68 34.3754 697.101 33.6846 698.276 32.3031C699.451 30.9086 700.283 28.0875 700.774 23.8396C699.999 25.0662 699.037 25.9312 697.888 26.4348C696.752 26.9254 695.525 27.1708 694.208 27.1708C691.536 27.1708 689.418 26.338 687.856 24.6724C686.307 23.0068 685.532 20.8635 685.532 18.2424C685.532 15.7247 686.3 13.5104 687.837 11.5995C689.373 9.68855 691.639 8.73309 694.635 8.73309C698.676 8.73309 701.465 10.5536 703.001 14.1947C703.853 16.196 704.279 18.7008 704.279 21.7092C704.279 25.1049 703.769 28.1133 702.749 30.7343C701.058 35.0984 698.192 37.2805 694.15 37.2805C691.439 37.2805 689.38 36.5703 687.972 35.1501C686.565 33.7298 685.861 31.948 685.861 29.8047H689.386ZM694.673 24.1107C696.055 24.1107 697.314 23.6588 698.45 22.755C699.599 21.8383 700.174 20.2437 700.174 17.9713C700.174 15.9313 699.657 14.4142 698.624 13.42C697.604 12.4129 696.3 11.9093 694.712 11.9093C693.008 11.9093 691.652 12.4839 690.645 13.633C689.651 14.7692 689.154 16.2928 689.154 18.2037C689.154 20.0113 689.593 21.4509 690.471 22.5226C691.349 23.5814 692.749 24.1107 694.673 24.1107ZM715.222 8.05524H718.166L709.141 36.5058H706.197L715.222 8.05524ZM721.163 29.2472C721.427 31.1511 722.181 32.579 723.424 33.531C724.693 34.4565 726.24 34.9192 728.064 34.9192C729.096 34.9192 730.021 34.7341 730.841 34.3639C731.687 33.9937 732.401 33.4913 732.983 32.8567C733.565 32.1956 734.001 31.442 734.292 30.5958C734.609 29.7232 734.768 28.7845 734.768 27.7797C734.768 26.7484 734.596 25.7965 734.252 24.9238C733.935 24.0512 733.472 23.2976 732.864 22.663C732.282 22.0284 731.555 21.5392 730.682 21.1954C729.836 20.8516 728.884 20.6798 727.826 20.6798C726.557 20.6798 725.42 20.9178 724.415 21.3937C723.411 21.8433 722.525 22.5704 721.758 23.5753L719.656 23.2976L721.917 8.82017H735.799V10.962H724.058L722.313 20.3625C722.868 20.0187 723.371 19.7278 723.82 19.4898C724.296 19.2519 724.772 19.0668 725.248 18.9345C725.724 18.7759 726.213 18.6701 726.716 18.6172C727.245 18.5643 727.826 18.5379 728.461 18.5379C729.73 18.5379 730.907 18.7494 731.991 19.1725C733.075 19.5956 734.014 20.2038 734.807 20.9971C735.601 21.7904 736.209 22.7688 736.632 23.9322C737.081 25.0693 737.306 26.3518 737.306 27.7797C737.306 29.2605 737.055 30.5826 736.553 31.7461C736.077 32.8831 735.429 33.8483 734.609 34.6416C733.789 35.4349 732.837 36.043 731.753 36.4661C730.696 36.8628 729.598 37.0611 728.461 37.0611C727.139 37.0611 725.896 36.9289 724.733 36.6644C723.596 36.4 722.591 35.9637 721.718 35.3555C720.846 34.7209 720.132 33.9144 719.576 32.936C719.047 31.9312 718.73 30.7016 718.624 29.2472H721.163Z" fill="black"/>
<path d="M3.01269 47.8247H21.4504V50.9235H6.35247V58.6015H20.3141V61.5282H6.35247V70.1014H21.7086V73.1141H3.01269V47.8247ZM32.8986 54.1428C34.9759 54.1428 36.663 54.6477 37.9599 55.6577C39.2683 56.6677 40.0544 58.4064 40.3184 60.874H37.3057C37.1221 59.7378 36.7032 58.7967 36.049 58.0507C35.3948 57.2932 34.3447 56.9144 32.8986 56.9144C30.9245 56.9144 29.5129 57.8785 28.6636 59.8066C28.1127 61.0576 27.8373 62.6012 27.8373 64.4376C27.8373 66.2853 28.2275 67.8405 29.0079 69.1029C29.7883 70.3654 31.0164 70.9966 32.692 70.9966C33.9774 70.9966 34.9931 70.6064 35.7391 69.826C36.4966 69.0341 37.0188 67.9552 37.3057 66.5895H40.3184C39.9741 69.0341 39.1133 70.8245 37.7361 71.9607C36.3589 73.0854 34.5972 73.6478 32.451 73.6478C30.0408 73.6478 28.1184 72.7698 26.6838 71.0138C25.2492 69.2464 24.5319 67.0428 24.5319 64.4031C24.5319 61.1666 25.3181 58.6475 26.8904 56.8456C28.4627 55.0437 30.4655 54.1428 32.8986 54.1428ZM50.5271 54.1428C52.6044 54.1428 54.2915 54.6477 55.5884 55.6577C56.8968 56.6677 57.683 58.4064 57.9469 60.874H54.9342C54.7506 59.7378 54.3317 58.7967 53.6775 58.0507C53.0233 57.2932 51.9732 56.9144 50.5271 56.9144C48.5531 56.9144 47.1414 57.8785 46.2921 59.8066C45.7412 61.0576 45.4658 62.6012 45.4658 64.4376C45.4658 66.2853 45.856 67.8405 46.6364 69.1029C47.4169 70.3654 48.6449 70.9966 50.3205 70.9966C51.6059 70.9966 52.6216 70.6064 53.3676 69.826C54.1251 69.0341 54.6473 67.9552 54.9342 66.5895H57.9469C57.6026 69.0341 56.7419 70.8245 55.3646 71.9607C53.9874 73.0854 52.2257 73.6478 50.0795 73.6478C47.6694 73.6478 45.747 72.7698 44.3124 71.0138C42.8777 69.2464 42.1604 67.0428 42.1604 64.4031C42.1604 61.1666 42.9466 58.6475 44.5189 56.8456C46.0913 55.0437 48.094 54.1428 50.5271 54.1428ZM68.7238 54.2633C70.0321 54.2633 71.3003 54.5731 72.5283 55.1929C73.7564 55.8012 74.6917 56.5931 75.3345 57.5686C75.9542 58.4983 76.3674 59.5828 76.574 60.8223C76.7576 61.6716 76.8494 63.0259 76.8494 64.8852H63.3353C63.3927 66.7559 63.8346 68.2594 64.6609 69.3956C65.4873 70.5203 66.7669 71.0827 68.5 71.0827C70.1182 71.0827 71.4094 70.549 72.3734 69.4817C72.9243 68.8619 73.3145 68.1446 73.5441 67.3297H76.5912C76.5108 68.0069 76.2411 68.7644 75.7821 69.6022C75.3345 70.4285 74.8295 71.1056 74.2671 71.6336C73.326 72.5517 72.1611 73.1715 70.7724 73.4928C70.0264 73.6765 69.1828 73.7683 68.2417 73.7683C65.9463 73.7683 64.001 72.9362 62.4057 71.2721C60.8104 69.5964 60.0128 67.2551 60.0128 64.2482C60.0128 61.2871 60.8162 58.8827 62.4229 57.0349C64.0297 55.1872 66.13 54.2633 68.7238 54.2633ZM73.6646 62.4234C73.5383 61.0806 73.2457 60.0075 72.7866 59.2041C71.9373 57.7121 70.5199 56.9661 68.5344 56.9661C67.1112 56.9661 65.9176 57.4825 64.9536 58.5155C63.9895 59.5369 63.4788 60.8395 63.4214 62.4234H73.6646ZM79.294 70.6695L90.2257 57.4481H80.1031V54.6764H94.3919V57.2071L83.529 70.3424H94.719V73.1141H79.294V70.6695ZM98.2998 54.7625H101.45V73.1141H98.2998V54.7625ZM98.2998 47.8247H101.45V51.3367H98.2998V47.8247ZM113.467 71.1171C115.521 71.1171 116.927 70.3424 117.684 68.793C118.453 67.2322 118.838 65.4992 118.838 63.594C118.838 61.8725 118.562 60.4723 118.011 59.3935C117.139 57.6949 115.636 56.8456 113.501 56.8456C111.607 56.8456 110.23 57.5686 109.369 59.0147C108.508 60.4608 108.078 62.2053 108.078 64.2482C108.078 66.2107 108.508 67.8462 109.369 69.1546C110.23 70.4629 111.596 71.1171 113.467 71.1171ZM113.587 54.1428C115.963 54.1428 117.971 54.9347 119.612 56.5185C121.254 58.1023 122.074 60.4321 122.074 63.5079C122.074 66.4804 121.351 68.9365 119.905 70.8761C118.459 72.8157 116.215 73.7855 113.174 73.7855C110.637 73.7855 108.623 72.9305 107.131 71.2204C105.639 69.4989 104.893 67.192 104.893 64.2998C104.893 61.2011 105.679 58.7335 107.252 56.8972C108.824 55.0609 110.936 54.1428 113.587 54.1428ZM125.775 54.6764H128.719V57.2932C129.592 56.2143 130.515 55.4397 131.491 54.9691C132.467 54.4985 133.551 54.2633 134.745 54.2633C137.361 54.2633 139.129 55.1757 140.047 57.0005C140.552 57.999 140.805 59.4279 140.805 61.2871V73.1141H137.654V61.4937C137.654 60.369 137.488 59.4623 137.155 58.7737C136.604 57.626 135.605 57.0522 134.159 57.0522C133.425 57.0522 132.822 57.1268 132.352 57.276C131.502 57.5285 130.756 58.0334 130.114 58.7909C129.597 59.3992 129.259 60.0304 129.098 60.6846C128.949 61.3273 128.874 62.2512 128.874 63.4563V73.1141H125.775V54.6764ZM147.777 68.2077C147.777 69.1029 148.104 69.8088 148.758 70.3252C149.412 70.8417 150.187 71.0999 151.082 71.0999C152.172 71.0999 153.228 70.8474 154.25 70.3424C155.971 69.5046 156.832 68.1331 156.832 66.228V63.7317C156.453 63.9727 155.966 64.1736 155.369 64.3343C154.772 64.4949 154.187 64.6097 153.613 64.6786L151.736 64.9196C150.612 65.0688 149.768 65.3041 149.206 65.6254C148.253 66.1648 147.777 67.0256 147.777 68.2077ZM155.283 61.9413C155.994 61.8495 156.47 61.5511 156.712 61.0461C156.849 60.7707 156.918 60.3747 156.918 59.8583C156.918 58.8024 156.539 58.0392 155.782 57.5686C155.036 57.0866 153.963 56.8456 152.563 56.8456C150.944 56.8456 149.797 57.2817 149.12 58.1539C148.741 58.636 148.494 59.3533 148.379 60.3059H145.487C145.544 58.0334 146.279 56.4554 147.691 55.5716C149.114 54.6764 150.761 54.2288 152.631 54.2288C154.801 54.2288 156.562 54.642 157.917 55.4683C159.259 56.2947 159.931 57.5801 159.931 59.3246V69.9465C159.931 70.2678 159.994 70.5261 160.12 70.7212C160.258 70.9163 160.539 71.0138 160.964 71.0138C161.101 71.0138 161.256 71.0081 161.429 70.9966C161.601 70.9737 161.784 70.945 161.979 70.9105V73.2002C161.497 73.3379 161.13 73.424 160.878 73.4584C160.625 73.4928 160.281 73.5101 159.845 73.5101C158.777 73.5101 158.003 73.1313 157.521 72.3738C157.268 71.9721 157.09 71.404 156.987 70.6695C156.356 71.4959 155.449 72.2132 154.267 72.8214C153.085 73.4297 151.782 73.7339 150.359 73.7339C148.649 73.7339 147.249 73.2174 146.158 72.1845C145.08 71.1401 144.54 69.8374 144.54 68.2766C144.54 66.5665 145.074 65.2409 146.141 64.2998C147.209 63.3587 148.609 62.7791 150.342 62.5611L155.283 61.9413ZM165.113 47.8247H168.211V73.1141H165.113V47.8247ZM180.555 54.2633C181.863 54.2633 183.131 54.5731 184.359 55.1929C185.587 55.8012 186.523 56.5931 187.165 57.5686C187.785 58.4983 188.198 59.5828 188.405 60.8223C188.589 61.6716 188.68 63.0259 188.68 64.8852H175.166C175.224 66.7559 175.666 68.2594 176.492 69.3956C177.318 70.5203 178.598 71.0827 180.331 71.0827C181.949 71.0827 183.24 70.549 184.204 69.4817C184.755 68.8619 185.146 68.1446 185.375 67.3297H188.422C188.342 68.0069 188.072 68.7644 187.613 69.6022C187.165 70.4285 186.661 71.1056 186.098 71.6336C185.157 72.5517 183.992 73.1715 182.603 73.4928C181.857 73.6765 181.014 73.7683 180.073 73.7683C177.777 73.7683 175.832 72.9362 174.237 71.2721C172.641 69.5964 171.844 67.2551 171.844 64.2482C171.844 61.2871 172.647 58.8827 174.254 57.0349C175.861 55.1872 177.961 54.2633 180.555 54.2633ZM185.496 62.4234C185.369 61.0806 185.077 60.0075 184.618 59.2041C183.768 57.7121 182.351 56.9661 180.365 56.9661C178.942 56.9661 177.749 57.4825 176.785 58.5155C175.821 59.5369 175.31 60.8395 175.252 62.4234H185.496Z" fill="black"/>
<defs>
<filter id="filter0_d_329_17" x="210.144" y="0.131439" width="430.674" height="84.7245" filterUnits="userSpaceOnUse" color-interpolation-filters="sRGB">
<feFlood flood-opacity="0" result="BackgroundImageFix"/>
<feColorMatrix in="SourceAlpha" type="matrix" values="0 0 0 0 0 0 0 0 0 0 0 0 0 0 0 0 0 0 127 0" result="hardAlpha"/>
<feOffset dy="5.80554"/>
<feGaussianBlur stdDeviation="2.90277"/>
<feComposite in2="hardAlpha" operator="out"/>
<feColorMatrix type="matrix" values="0 0 0 0 0 0 0 0 0 0 0 0 0 0 0 0 0 0 0.25 0"/>
<feBlend mode="normal" in2="BackgroundImageFix" result="effect1_dropShadow_329_17"/>
<feBlend mode="normal" in="SourceGraphic" in2="effect1_dropShadow_329_17" result="shape"/>
</filter>
</defs>
</svg>
